<?xml version="1.0" encoding="UTF-8" standalone="no"?>
<!DOCTYPE svg PUBLIC "-//W3C//DTD SVG 1.1//EN" "http://www.w3.org/Graphics/SVG/1.1/DTD/svg11.dtd">
<svg width="100%" height="100%" viewBox="0 0 375 309" version="1.1" xmlns="http://www.w3.org/2000/svg" xmlns:xlink="http://www.w3.org/1999/xlink" xml:space="preserve" style="fill-rule:evenodd;clip-rule:evenodd;stroke-linejoin:round;stroke-miterlimit:1.41421;">
    <g transform="matrix(1.55159,0,0,1.55159,0,0)">
        <path d="M61.071,44L61.071,63.493C61.071,68.063 58.387,71.844 50.036,71.844C41.686,71.844 39,68.063 39,63.493L39,44L43.469,44L43.469,63.129C43.469,66.176 45.102,67.903 50.036,67.903C54.977,67.903 56.604,66.176 56.604,63.129L56.604,44L61.071,44Z" style="fill:rgb(26,25,25);"/>
    </g>
    <g transform="matrix(1.55159,0,0,1.55159,0,0)">
        <path d="M79.406,71.371C76.566,71.371 72.681,70.791 70,69.74L70.631,66.219C73.519,67.065 76.777,67.539 79.457,67.539C84.027,67.539 84.922,66.746 84.922,63.859C84.922,60.711 84.922,60.545 78.676,58.92C70.687,56.818 70.316,55.449 70.316,50.301C70.316,44.789 72.84,43 80.402,43C82.715,43 86.238,43.371 88.758,44L88.39,47.676C86.023,47.203 82.609,46.84 80.457,46.84C75.465,46.84 74.783,47.309 74.783,50.461C74.783,53.508 74.836,53.664 80.927,55.35C88.965,57.506 89.39,58.551 89.39,63.756C89.39,68.852 87.863,71.371 79.406,71.371Z" style="fill:rgb(26,25,25);"/>
    </g>
    <g transform="matrix(1.55159,0,0,1.55159,0,0)">
        <path d="M98,44L116.133,44L115.684,47.887L102.465,47.887L102.465,55.563L112.157,55.563L112.157,59.448L102.465,59.448L102.465,67.43L116.18,67.43L116.18,71.329L98,71.329L98,44Z" style="fill:rgb(26,25,25);"/>
    </g>
    <g transform="matrix(1.55159,0,0,1.55159,0,0)">
        <path d="M147.069,44L147.069,63.493C147.069,68.063 144.391,71.844 136.036,71.844C127.684,71.844 125,68.063 125,63.493L125,44L129.473,44L129.473,63.129C129.473,66.176 131.102,67.903 136.036,67.903C140.977,67.903 142.604,66.176 142.604,63.129L142.604,44L147.069,44Z" style="fill:rgb(26,25,25);"/>
    </g>
    <g transform="matrix(1.55159,0,0,1.55159,0,0)">
        <path d="M69.594,104.323L75.58,104.323L72.563,93.363L69.594,104.323ZM77.328,110.421L67.844,110.421L66.68,114.544L59,114.544L67.739,87L77.379,87L86.178,114.544L78.498,114.544L77.328,110.421Z" style="fill:rgb(26,25,25);"/>
    </g>
    <g transform="matrix(1.55159,0,0,1.55159,0,0)">
        <path d="M104.922,93.306L99.84,93.306L99.84,101.042L104.922,101.042C106.883,101.042 107.629,100.249 107.629,98.655L107.629,95.581C107.629,94.042 106.883,93.306 104.922,93.306ZM104.399,107.181L99.84,107.181L99.84,114.544L92,114.544L92,87L105.133,87C112.821,87 115.258,89.972 115.258,95.214L115.258,98.925C115.258,102.104 114.352,103.851 111.971,105.546L118.014,114.544L109.272,114.544L104.399,107.181Z" style="fill:rgb(26,25,25);"/>
    </g>
    <g transform="matrix(1.55159,0,0,1.55159,0,0)">
        <path d="M134.179,114.544L126.343,114.544L126.343,93.776L119,93.776L119,87L141.509,87L141.509,93.776L134.179,93.776L134.179,114.544Z" style="fill:rgb(26,25,25);"/>
    </g>
    <g transform="matrix(1.55159,0,0,1.55159,0,0)">
        <path d="M184.014,44L178.705,44L170.51,66.66L162.311,44L157.006,44L155,71.32L159.36,71.32L160.842,50.52L168.315,71.32L172.76,71.32L180.178,50.52L181.663,71.32L186.022,71.32L184.014,44Z" style="fill:rgb(26,25,25);"/>
    </g>
    <g transform="matrix(1.55159,0,0,1.55159,0,0)">
        <path d="M29.016,44L23.709,44L15.51,66.66L7.309,44L2.004,44L0,71.32L4.359,71.32L5.84,50.52L13.309,71.32L17.758,71.32L25.18,50.52L26.662,71.32L31.02,71.32L29.016,44Z" style="fill:rgb(26,25,25);"/>
    </g>
    <g transform="matrix(1.55159,0,0,1.55159,0,0)">
        <path d="M10.758,24.685C12.879,24.685 16.165,24.424 18.547,24.002L18.918,27.76C16.004,28.398 13.141,28.611 10.704,28.611C2.864,28.611 0,25.854 0,20.236L0,8.369C0,2.754 2.864,0 10.704,0C13.141,0 16.004,0.209 18.918,0.846L18.547,4.604C16.165,4.186 12.879,3.92 10.758,3.92C6.254,3.92 4.504,4.979 4.504,8.686L4.504,19.92C4.504,23.631 6.254,24.685 10.758,24.685Z" style="fill:rgb(26,25,25);"/>
    </g>
    <g transform="matrix(1.55159,0,0,1.55159,0,0)">
        <path d="M37.986,4.338L33.006,18.752L42.963,18.752L37.986,4.338ZM50.963,28.555L46.459,28.555L44.129,22.407L31.787,22.407L29.506,28.555L25,28.555L35.228,1L40.74,1L50.963,28.555Z" style="fill:rgb(26,25,25);"/>
    </g>
    <g transform="matrix(1.55159,0,0,1.55159,0,0)">
        <path d="M61.508,15.625L69.611,15.625C72.742,15.625 73.481,14.567 73.481,12.079L73.481,8.471C73.481,5.981 72.742,4.922 69.611,4.922L61.508,4.922L61.508,15.625ZM69.082,19.446L61.508,19.446L61.508,28.555L57,28.555L57,1L69.35,1C76.024,1 77.985,3.705 77.985,8.051L77.985,12.393C77.985,15.571 76.922,17.85 73.801,18.856L80.317,28.555L75.231,28.555L69.082,19.446Z" style="fill:rgb(26,25,25);"/>
    </g>
    <g transform="matrix(1.55159,0,0,1.55159,0,0)">
        <path d="M93.293,6.459L93.293,28.555L89,28.555L89,1L94.666,1L107.596,23.098L107.596,1L111.889,1L111.889,28.555L106.221,28.555L93.293,6.459Z" style="fill:rgb(26,25,25);"/>
    </g>
    <g transform="matrix(1.55159,0,0,1.55159,0,0)">
        <path d="M121,1L139.277,1L138.211,4.922L125.5,4.922L125.5,12.661L134.99,12.661L134.99,16.581L125.5,16.581L125.5,24.637L139.328,24.637L139.328,28.555L121,28.555L121,1Z" style="fill:rgb(26,25,25);"/>
    </g>
    <g transform="matrix(1.55159,0,0,1.55159,0,0)">
        <path d="M163.155,15.256L163.155,24.162C161.512,24.479 159.606,24.685 157.491,24.685C152.614,24.685 151.496,23.256 151.496,19.869L151.496,8.795C151.496,4.979 152.934,3.971 157.696,3.971C160.137,3.971 163.319,4.186 166.233,4.658L166.657,0.846C164.004,0.26 160.883,0 158.012,0C150.016,0 147,2.436 147,8.314L147,20.344C147,25.748 149.59,28.611 157.434,28.611C160.082,28.611 164.375,28.186 167.448,27.236L167.448,15.256L163.155,15.256Z" style="fill:rgb(26,25,25);"/>
    </g>
    <g transform="matrix(1.55159,0,0,1.55159,0,0)">
        <rect x="176" y="1" width="4.502" height="27.555" style="fill:rgb(26,25,25);"/>
    </g>
    <g transform="matrix(1.55159,0,0,1.55159,0,0)">
        <path d="M190,1L208.285,1L207.211,4.922L194.508,4.922L194.508,12.661L204,12.661L204,16.581L194.508,16.581L194.508,24.637L208.336,24.637L208.336,28.555L190,28.555L190,1Z" style="fill:rgb(26,25,25);"/>
    </g>
    <g transform="matrix(1.55159,0,0,1.55159,0,0)">
        <rect x="159" y="15" width="8.02" height="4.273" style="fill:rgb(26,25,25);"/>
    </g>
    <g transform="matrix(1.55159,0,0,1.55159,0,0)">
        <path d="M204.494,71.633C201.625,71.633 197.711,71.043 195,69.984L195.633,66.434C198.555,67.285 201.84,67.758 204.547,67.758C209.156,67.758 210.063,66.963 210.063,64.049C210.063,60.865 210.063,60.705 203.75,59.066C195.693,56.945 195.32,55.567 195.32,50.367C195.32,44.803 197.863,43 205.5,43C207.836,43 211.387,43.367 213.932,44.004L213.561,47.713C211.17,47.24 207.723,46.877 205.551,46.877C200.512,46.877 199.826,47.348 199.826,50.527C199.826,53.6 199.881,53.762 206.031,55.457C214.141,57.631 214.566,58.693 214.566,63.947C214.566,69.084 213.027,71.633 204.494,71.633Z" style="fill:rgb(26,25,25);"/>
    </g>
    <g transform="matrix(1.55159,0,0,1.55159,0,0)">
        <path d="M168.925,90.326L163.97,104.681L173.888,104.681L168.925,90.326ZM181.859,114.444L177.371,114.444L175.047,108.317L162.754,108.317L160.486,114.444L156,114.444L166.179,87L171.67,87L181.859,114.444Z" style="fill:rgb(26,25,25);"/>
    </g>
    <g transform="matrix(1.55159,0,0,1.55159,0,0)">
        <path d="M192.279,92.435L192.279,114.444L188,114.444L188,87L193.648,87L206.521,109.009L206.521,87L210.797,87L210.797,114.444L205.148,114.444L192.279,92.435Z" style="fill:rgb(26,25,25);"/>
    </g>
    <g transform="matrix(1.55159,0,0,1.55159,0,0)">
        <path d="M225.488,110.532L231.66,110.532C235.828,110.532 237.201,109.11 237.201,105.786L237.201,95.657C237.201,92.332 235.828,90.906 231.66,90.906L225.488,90.906L225.488,110.532ZM231.976,87C239.738,87 241.687,90.589 241.687,95.657L241.687,105.786C241.687,110.854 239.738,114.444 231.976,114.444L221,114.444L221,87L231.976,87Z" style="fill:rgb(26,25,25);"/>
    </g>
    <g transform="matrix(1.55159,0,0,1.55159,0,0)">
        <path d="M17.633,187.053L8.816,187.053L8.816,197.455L1,197.455L1,170L8.816,170L8.816,180.293L17.633,180.293L17.633,170L25.449,170L25.449,197.455L17.633,197.455L17.633,187.053Z" style="fill:rgb(26,25,25);"/>
    </g>
    <g transform="matrix(1.55159,0,0,1.55159,0,0)">
        <rect x="33" y="170" width="7.814" height="27.455" style="fill:rgb(26,25,25);"/>
    </g>
    <g transform="matrix(1.55159,0,0,1.55159,0,0)">
        <path d="M48,196.615L49.265,190.801C51.644,191.49 55.129,192.125 58.031,192.125C60.937,192.125 61.515,191.545 61.515,189.959C61.515,188.217 61.199,187.795 56.238,187.006C49.056,185.842 48.32,183.045 48.32,178.025C48.32,172.008 51.959,170 59.191,170C61.832,170 65.953,170.422 68.593,171.162L67.693,177.338C64.629,176.707 61.73,176.39 59.246,176.39C56.711,176.39 56.132,176.761 56.132,178.289C56.132,180.14 56.394,180.4 61.093,181.25C68.802,182.623 69.328,184.416 69.328,189.592C69.328,195.504 67.22,198.513 57.929,198.513C54.758,198.513 50.955,197.881 48,196.615Z" style="fill:rgb(26,25,25);"/>
    </g>
    <g transform="matrix(1.55159,0,0,1.55159,0,0)">
        <path d="M112.092,176.761C109.135,176.761 107.816,177.922 107.816,179.877L107.816,188.64C107.816,190.592 109.135,191.754 112.092,191.754C115.047,191.754 116.367,190.592 116.367,188.64L116.367,179.877C116.367,177.922 115.047,176.761 112.092,176.761ZM100,189.592L100,178.92C100,174.172 103.486,170 112.092,170C120.695,170 124.184,174.172 124.184,178.92L124.184,189.592C124.184,194.342 120.695,198.513 112.092,198.513C103.486,198.513 100,194.342 100,189.592Z" style="fill:rgb(26,25,25);"/>
    </g>
    <g transform="matrix(1.55159,0,0,1.55159,0,0)">
        <path d="M142.882,176.279L137.814,176.279L137.814,183.99L142.882,183.99C144.838,183.99 145.576,183.197 145.576,181.611L145.576,178.551C145.576,177.021 144.838,176.279 142.882,176.279ZM142.351,190.117L137.814,190.117L137.814,197.455L130,197.455L130,170L143.093,170C150.748,170 153.177,172.955 153.177,178.184L153.177,181.879C153.177,185.045 152.281,186.789 149.904,188.475L155.924,197.455L147.213,197.455L142.351,190.117Z" style="fill:rgb(26,25,25);"/>
    </g>
    <g transform="matrix(1.55159,0,0,1.55159,0,0)">
        <path d="M173.318,197.455L165.502,197.455L165.502,189.639L156,170L163.92,170L169.406,182.353L174.9,170L182.822,170L173.318,189.639L173.318,197.455Z" style="fill:rgb(26,25,25);"/>
    </g>
    <g transform="matrix(1.55159,0,0,1.55159,0,0)">
        <path d="M8.393,138.725L8.393,155.459L1,155.459L1,128L10.293,128L19.43,144.791L19.43,128L26.82,128L26.82,155.459L17.529,155.459L8.393,138.725Z" style="fill:rgb(26,25,25);"/>
    </g>
    <g transform="matrix(1.55159,0,0,1.55159,0,0)">
        <path d="M42.559,145.268L48.523,145.268L45.514,134.338L42.559,145.268ZM50.266,151.338L40.816,151.338L39.654,155.459L32,155.459L40.713,128L50.32,128L59.082,155.459L51.424,155.459L50.266,151.338Z" style="fill:rgb(26,25,25);"/>
    </g>
    <g transform="matrix(1.55159,0,0,1.55159,0,0)">
        <path d="M87,147.33L87,128L94.816,128L94.816,146.428C94.816,148.275 95.978,149.228 98.935,149.228C101.838,149.228 103.053,148.275 103.053,146.428L103.053,128L110.867,128L110.867,147.33C110.867,151.6 108.277,155.982 98.935,155.982C89.588,155.982 87,151.6 87,147.33Z" style="fill:rgb(26,25,25);"/>
    </g>
    <g transform="matrix(1.55159,0,0,1.55159,0,0)">
        <path d="M129.883,134.287L124.816,134.287L124.816,141.994L129.883,141.994C131.836,141.994 132.574,141.201 132.574,139.619L132.574,136.557C132.574,135.023 131.836,134.287 129.883,134.287ZM129.353,148.117L124.816,148.117L124.816,155.459L117,155.459L117,128L130.094,128C137.75,128 140.177,130.957 140.177,136.186L140.177,139.879C140.177,143.049 139.277,144.791 136.906,146.482L142.924,155.459L134.209,155.459L129.353,148.117Z" style="fill:rgb(26,25,25);"/>
    </g>
    <g transform="matrix(1.55159,0,0,1.55159,0,0)">
        <path d="M156.558,145.268L162.523,145.268L159.513,134.338L156.558,145.268ZM164.265,151.338L154.814,151.338L153.654,155.459L146,155.459L154.713,128L164.318,128L173.084,155.459L165.427,155.459L164.265,151.338Z" style="fill:rgb(26,25,25);"/>
    </g>
    <g transform="matrix(1.55159,0,0,1.55159,0,0)">
        <path d="M178,128L185.813,128L185.813,148.697L197.324,148.697L197.324,155.459L178,155.459L178,128Z" style="fill:rgb(26,25,25);"/>
    </g>
    <g transform="matrix(1.55159,0,0,1.55159,0,0)">
        <path d="M74.211,155.593L66.355,155.593L66.355,134.793L59,134.793L59,128L81.545,128L81.545,134.793L74.211,134.793L74.211,155.593Z" style="fill:rgb(26,25,25);"/>
    </g>
    <g transform="matrix(1.55159,0,0,1.55159,0,0)">
        <path d="M88.211,197.595L80.355,197.595L80.355,176.791L73,176.791L73,170L95.551,170L95.551,176.791L88.211,176.791L88.211,197.595Z" style="fill:rgb(26,25,25);"/>
    </g>
    <g transform="matrix(1.55159,0,0,1.55159,0,0)">
        <path d="M12.285,89.971C7.359,89.971 5.507,91.668 5.507,94.954L5.507,105.652C5.507,108.935 7.359,110.63 12.285,110.63C17.158,110.63 19.062,108.935 19.062,105.652L19.062,94.954C19.062,91.668 17.158,89.971 12.285,89.971ZM23.566,105.812C23.566,110.525 20.812,114.603 12.285,114.603C3.754,114.603 1,110.525 1,105.812L1,94.796C1,90.076 3.754,86 12.285,86C20.812,86 23.566,90.076 23.566,94.796L23.566,105.812Z" style="fill:rgb(26,25,25);"/>
    </g>
    <g transform="matrix(1.55159,0,0,1.55159,0,0)">
        <path d="M32,114.543L32,87L50.492,87L50.016,90.92L36.504,90.92L36.504,99.343L46.467,99.343L46.467,103.261L36.504,103.261L36.504,114.543L32,114.543Z" style="fill:rgb(26,25,25);"/>
    </g>
</svg>
