<?xml version="1.0" encoding="utf-8"?>
<!-- Generator: Adobe Illustrator 21.0.0, SVG Export Plug-In . SVG Version: 6.00 Build 0)  -->
<svg version="1.1" id="Layer_4" xmlns="http://www.w3.org/2000/svg" xmlns:xlink="http://www.w3.org/1999/xlink" x="0px" y="0px"
	 viewBox="0 0 569.1 112" style="enable-background:new 0 0 569.1 112;" xml:space="preserve">
<g>
	<g>
		<g>
			<path d="M275.8,0.5V19c0,4.4-2.6,8-10.5,8c-7.9,0-10.5-3.6-10.5-8V0.5h4.2v18.2c0,2.9,1.6,4.5,6.2,4.5c4.7,0,6.2-1.6,6.2-4.5V0.5
				H275.8z"/>
			<path d="M292.9,27c-2.7,0-6.4-0.6-8.9-1.6l0.6-3.4c2.8,0.8,5.9,1.3,8.4,1.3c4.3,0,5.2-0.8,5.2-3.5c0-3,0-3.2-5.9-4.7
				c-7.6-2-7.9-3.3-7.9-8.2c0-5.2,2.4-6.9,9.6-6.9c2.2,0,5.6,0.4,7.9,1l-0.3,3.5c-2.2-0.4-5.5-0.8-7.5-0.8c-4.8,0-5.4,0.4-5.4,3.4
				c0,2.9,0,3,5.8,4.6c7.6,2.1,8.1,3,8.1,8C302.4,24.6,301,27,292.9,27z"/>
			<path d="M310.7,0.5h17.2l-0.4,3.7h-12.6v7.3h9.2v3.7h-9.2v7.6H328v3.7h-17.3V0.5z"/>
			<path d="M357,0.5V19c0,4.4-2.5,8-10.5,8c-7.9,0-10.5-3.6-10.5-8V0.5h4.3v18.2c0,2.9,1.6,4.5,6.2,4.5c4.7,0,6.2-1.6,6.2-4.5V0.5
				H357z"/>
			<g>
				<path d="M19.4,62.8h-9l-1.1,3.9H2l8.3-26.2h9.2l8.4,26.2h-7.3L19.4,62.8z M12,57h5.7l-2.9-10.4L12,57z"/>
				<path d="M44.4,59.7h-4.3v7h-7.5V40.5h12.5c7.3,0,9.6,2.8,9.6,7.8v3.5c0,3-0.9,4.7-3.1,6.3l5.7,8.6H49L44.4,59.7z M44.9,46.5
					h-4.8v7.4h4.8c1.9,0,2.6-0.8,2.6-2.3v-2.9C47.5,47.2,46.8,46.5,44.9,46.5z"/>
				<path d="M73.6,66.7h-7.5V47h-7v-6.4h21.4V47h-7V66.7z"/>
			</g>
			<polygon points="392.5,0.8 387.5,0.8 379.7,22.3 371.9,0.8 366.8,0.8 364.9,26.7 369.1,26.7 370.5,7 377.6,26.7 381.8,26.7 
				388.9,7 390.3,26.7 394.4,26.7 			"/>
			<polygon points="244.9,0.8 239.9,0.8 232.1,22.3 224.3,0.8 219.2,0.8 217.3,26.7 221.5,26.7 222.9,7 230,26.7 234.2,26.7 
				241.3,7 242.7,26.7 246.8,26.7 			"/>
			<path d="M11.8,23.5c2,0,5.1-0.2,7.4-0.7l0.4,3.6c-2.8,0.6-5.5,0.8-7.8,0.8c-7.5,0-10.2-2.6-10.2-8V8c0-5.3,2.7-8,10.2-8
				c2.3,0,5,0.2,7.8,0.8l-0.4,3.6C17,4,13.9,3.8,11.8,3.8c-4.3,0-5.9,1-5.9,4.5V19C5.9,22.5,7.6,23.5,11.8,23.5z"/>
			<path d="M50.1,26.7h-4.3l-2.2-5.8H31.8l-2.2,5.8h-4.3l9.7-26.2h5.2L50.1,26.7z M37.7,3.7L33,17.4h9.5L37.7,3.7z"/>
			<path d="M67.2,18.1h-7.2v8.7h-4.3V0.5h11.7c6.3,0,8.2,2.6,8.2,6.7v4.1c0,3-1,5.2-4,6.1l6.2,9.2H73L67.2,18.1z M59.9,14.4h7.7
				c3,0,3.7-1,3.7-3.4V7.6c0-2.4-0.7-3.4-3.7-3.4h-7.7V14.4z"/>
			<path d="M89.5,5.7v21h-4.1V0.5h5.4l12.3,21v-21h4.1v26.2h-5.4L89.5,5.7z"/>
			<path d="M116.2,0.5h17.4l-1,3.7h-12.1v7.4h9v3.7h-9V23h13.2v3.7h-17.4V0.5z"/>
			<path d="M156,14.5V23c-1.6,0.3-3.4,0.5-5.4,0.5c-4.6,0-5.7-1.4-5.7-4.6V8.4c0-3.6,1.4-4.6,5.9-4.6c2.3,0,5.3,0.2,8.1,0.7l0.4-3.6
				c-2.5-0.6-5.5-0.8-8.2-0.8c-7.6,0-10.5,2.3-10.5,7.9v11.4c0,5.1,2.5,7.9,9.9,7.9c2.5,0,6.6-0.4,9.5-1.3V14.5H156z"/>
			<path d="M173,26.7h-4.3V0.5h4.3V26.7z"/>
			<path d="M182.3,0.5h17.4l-1,3.7h-12.1v7.4h9v3.7h-9V23h13.2v3.7h-17.4V0.5z"/>
			<rect x="152.5" y="13.6" width="7.6" height="4.1"/>
			<path d="M411.6,27.2c-2.7,0-6.5-0.6-9-1.6l0.6-3.4c2.8,0.8,5.9,1.3,8.5,1.3c4.4,0,5.2-0.8,5.2-3.5c0-3,0-3.2-6-4.7
				c-7.7-2-8-3.3-8-8.3c0-5.3,2.4-7,9.7-7c2.2,0,5.6,0.3,8,1l-0.4,3.5c-2.3-0.4-5.6-0.8-7.6-0.8c-4.8,0-5.4,0.4-5.4,3.5
				c0,2.9,0.1,3.1,5.9,4.7c7.7,2.1,8.1,3.1,8.1,8.1C421.2,24.8,419.7,27.2,411.6,27.2z"/>
			<g>
				<path d="M118.2,66.8h-4.3l-2.2-5.8H100l-2.2,5.8h-4.3l9.7-26.1h5.2L118.2,66.8z M105.9,43.8l-4.7,13.7h9.4L105.9,43.8z"/>
				<path d="M128.8,45.8v20.9h-4.1V40.7h5.4l12.2,20.9V40.7h4.1v26.1H141L128.8,45.8z"/>
				<path d="M165.8,40.7c7.4,0,9.2,3.4,9.2,8.2v9.6c0,4.8-1.9,8.2-9.2,8.2h-10.4V40.7H165.8z M159.7,63.1h5.9c4,0,5.3-1.4,5.3-4.5
					v-9.6c0-3.2-1.3-4.5-5.3-4.5h-5.9V63.1z"/>
			</g>
			<g>
				<g>
					<path d="M199.2,50.9v15.9h-7V40.7h8.8l8.7,16v-16h7v26.1h-8.8L199.2,50.9z"/>
					<path d="M238.9,62.9h-9l-1.1,3.9h-7.3l8.3-26.1h9.1l8.3,26.1H240L238.9,62.9z M231.5,57.1h5.7l-2.9-10.4L231.5,57.1z"/>
					<path d="M274.1,59.1V40.7h7.4v17.5c0,1.8,1.1,2.7,3.9,2.7c2.8,0,3.9-0.9,3.9-2.7V40.7h7.4v18.4c0,4.1-2.5,8.2-11.3,8.2
						C276.6,67.3,274.1,63.1,274.1,59.1z"/>
					<path d="M314.6,59.8h-4.3v7h-7.4V40.7h12.5c7.3,0,9.6,2.8,9.6,7.8V52c0,3-0.9,4.7-3.1,6.3l5.7,8.5h-8.3L314.6,59.8z
						 M315.1,46.7h-4.8V54h4.8c1.9,0,2.6-0.8,2.6-2.3v-2.9C317.7,47.4,317,46.7,315.1,46.7z"/>
					<path d="M347.9,62.9h-9l-1.1,3.9h-7.3l8.3-26.1h9.1l8.3,26.1H349L347.9,62.9z M340.6,57.1h5.7l-2.9-10.4L340.6,57.1z"/>
					<path d="M361.1,40.7h7.4v19.7h11v6.4h-18.4V40.7z"/>
					<path d="M262.2,66.9h-7.5V47.1h-7v-6.5h21.4v6.5h-7V66.9z"/>
				</g>
				<g>
					<path d="M411.3,56.9H403v9.9h-7.4V40.7h7.4v9.8h8.4v-9.8h7.4v26.1h-7.4V56.9z"/>
					<path d="M426.6,40.7h7.4v26.1h-7.4V40.7z"/>
					<path d="M440.5,65.5l1.2-5.5c2.3,0.7,5.6,1.3,8.3,1.3c2.8,0,3.3-0.5,3.3-2.1c0-1.7-0.3-2.1-5-2.8c-6.8-1.1-7.5-3.8-7.5-8.5
						c0-5.7,3.5-7.6,10.3-7.6c2.5,0,6.4,0.4,8.9,1.1l-0.9,5.9c-2.9-0.6-5.7-0.9-8-0.9c-2.4,0-3,0.4-3,1.8c0,1.8,0.2,2,4.7,2.8
						c7.3,1.3,7.8,3,7.8,7.9c0,5.6-2,8.5-10.8,8.5C446.9,67.3,443.3,66.7,440.5,65.5z"/>
					<path d="M489.7,58.8V48.7c0-4.5,3.3-8.5,11.5-8.5c8.2,0,11.5,4,11.5,8.5v10.1c0,4.5-3.3,8.5-11.5,8.5
						C493.1,67.3,489.7,63.3,489.7,58.8z M501.2,46.6c-2.8,0-4.1,1.1-4.1,3v8.3c0,1.9,1.3,3,4.1,3c2.8,0,4.1-1.1,4.1-3v-8.3
						C505.3,47.7,504.1,46.6,501.2,46.6z"/>
					<path d="M530.1,59.8h-4.3v7h-7.4V40.7h12.5c7.3,0,9.6,2.8,9.6,7.8V52c0,3-0.9,4.7-3.1,6.3l5.7,8.5h-8.3L530.1,59.8z
						 M530.6,46.7h-4.8V54h4.8c1.9,0,2.6-0.8,2.6-2.3v-2.9C533.2,47.4,532.5,46.7,530.6,46.7z"/>
					<path d="M560,66.8h-7.4v-7.4l-9-18.7h7.5l5.2,11.8l5.2-11.8h7.5l-9,18.7V66.8z"/>
					<path d="M478.7,66.9h-7.5V47.1h-7v-6.5h21.4v6.5h-7V66.9z"/>
				</g>
			</g>
			<g>
				<path d="M460.9,19c0,4.5-2.6,8.4-10.8,8.4c-8.2,0-10.8-3.9-10.8-8.4V8.4c0-4.5,2.6-8.4,10.8-8.4c8.1,0,10.8,3.9,10.8,8.4V19z
					 M450.1,3.8c-4.7,0-6.5,1.6-6.5,4.8v10.2c0,3.1,1.8,4.8,6.5,4.8c4.7,0,6.5-1.6,6.5-4.8V8.6C456.6,5.4,454.8,3.8,450.1,3.8z"/>
				<path d="M469.1,26.8V0.5h17.7l-0.5,3.7h-12.9v8h9.5v3.7h-9.5v10.8H469.1z"/>
			</g>
		</g>
	</g>
	<g>
		<g>
			<path d="M187.1,105.2v-1.7c0-1.7-0.8-2.8-3.5-2.8h-4.9v11h1.8V108h3l2.5,3.7h2l-2.6-3.9C186.7,107.4,187.1,106.5,187.1,105.2z
				 M185.3,105.1c0,1-0.3,1.4-1.6,1.4h-3.2v-4.3h3.2c1.3,0,1.6,0.4,1.6,1.4V105.1z"/>
			<polygon points="198.1,109.5 192.9,100.7 190.6,100.7 190.6,111.7 192.3,111.7 192.3,102.9 197.5,111.7 199.8,111.7 199.8,100.7 
				198.1,100.7 			"/>
			<polygon points="232.3,106.9 237.5,106.9 237.5,105.3 232.3,105.3 232.3,102.2 237.9,102.2 237.9,100.7 230.5,100.7 230.5,111.7 
				237.9,111.7 237.9,110.1 232.3,110.1 			"/>
			<polygon points="205.2,106.9 210.3,106.9 210.3,105.3 205.2,105.3 205.2,102.2 210.7,102.2 210.7,100.7 203.4,100.7 203.4,111.7 
				210.7,111.7 210.7,110.1 205.2,110.1 			"/>
			<rect x="225" y="100.7" width="1.8" height="11"/>
			<path d="M219.9,110.1c-0.7,0.1-1.4,0.2-2.3,0.2c-2,0-2.4-0.6-2.4-1.9V104c0-1.5,0.6-1.9,2.5-1.9c1,0,2.2,0.1,3.4,0.3l0.2-1.5
				c-1.1-0.2-2.3-0.3-3.5-0.3c-3.2,0-4.4,1-4.4,3.3v4.8c0,2.2,1,3.3,4.2,3.3c1.1,0,2.8-0.2,4-0.5v-4.8h-1.7V110.1z"/>
			<path d="M161.6,102c0.8,0,2.2,0.1,3.1,0.3l0.2-1.5c-1.2-0.3-2.3-0.3-3.3-0.3c-3.1,0-4.3,1.1-4.3,3.4v4.8c0,2.2,1.1,3.3,4.3,3.3
				c1,0,2.1-0.1,3.3-0.3l-0.2-1.5c-1,0.2-2.3,0.3-3.1,0.3c-1.8,0-2.5-0.4-2.5-1.9v-4.5C159.1,102.4,159.8,102,161.6,102z"/>
			<path d="M149.8,105.2v-1.7c0-1.7-0.8-2.8-3.5-2.8h-4.9v11h1.8V108h3l2.5,3.7h2l-2.6-3.9C149.4,107.4,149.8,106.5,149.8,105.2z
				 M148,105.1c0,1-0.3,1.4-1.5,1.4h-3.2v-4.3h3.2c1.2,0,1.5,0.4,1.5,1.4V105.1z"/>
			<path d="M136.1,108.4c0,1.2-0.7,1.9-2.7,1.9s-2.7-0.7-2.7-1.9v-7.7H129v7.9c0,1.8,1.1,3.4,4.5,3.4c3.4,0,4.5-1.5,4.5-3.4v-7.9
				h-1.8V108.4z"/>
			<path d="M121.3,100.5c-3.4,0-4.5,1.6-4.5,3.5v4.4c0,1.9,1.1,3.5,4.5,3.5c3.4,0,4.5-1.6,4.5-3.5V104
				C125.9,102.1,124.8,100.5,121.3,100.5z M124.1,108.3c0,1.3-0.8,2-2.7,2c-2,0-2.7-0.7-2.7-2V104c0-1.3,0.7-2,2.7-2
				c2,0,2.7,0.7,2.7,2V108.3z"/>
			<path d="M170.7,100.7l-4.1,11h1.8l0.9-2.5h4.9l0.9,2.5h1.8l-4.1-11H170.7z M169.9,107.8l2-5.8l2,5.8H169.9z"/>
			<polygon points="254.3,100.7 251,108.9 247.7,100.7 245.6,100.7 245.1,111.7 246.8,111.7 247.1,103.3 249.9,110.3 252.1,110.3 
				254.9,103.3 255.2,111.7 256.9,111.7 256.5,100.7 			"/>
			<polygon points="94.3,106.9 99.4,106.9 99.4,105.3 94.3,105.3 94.3,102.2 99.8,102.2 99.8,100.7 92.5,100.7 92.5,111.7 
				99.8,111.7 99.8,110.1 94.3,110.1 			"/>
			<polygon points="87.1,105.3 81.9,105.3 81.9,100.7 80.1,100.7 80.1,111.7 81.9,111.7 81.9,106.9 87.1,106.9 87.1,111.7 
				88.9,111.7 88.9,100.7 87.1,100.7 			"/>
			<polygon points="55.8,111.7 57.6,111.7 57.6,107.2 62.8,107.2 62.8,105.6 57.6,105.6 57.6,102.2 63.2,102.2 63.2,100.7 
				55.8,100.7 			"/>
			<polygon points="68.8,102.3 72.5,102.3 72.5,111.7 74.3,111.7 74.3,102.3 77.9,102.3 77.9,100.7 68.8,100.7 			"/>
			<path d="M266.9,108.4c0,1.2-0.7,1.9-2.7,1.9c-2,0-2.7-0.7-2.7-1.9v-7.7h-1.8v7.9c0,1.8,1.1,3.4,4.5,3.4c3.4,0,4.5-1.5,4.5-3.4
				v-7.9h-1.8V108.4z"/>
			<path d="M48,100.5c-3.4,0-4.5,1.6-4.5,3.5v4.4c0,1.9,1.1,3.5,4.5,3.5c3.4,0,4.5-1.6,4.5-3.5V104C52.5,102.1,51.4,100.5,48,100.5z
				 M50.7,108.3c0,1.3-0.8,2-2.7,2c-2,0-2.7-0.7-2.7-2V104c0-1.3,0.7-2,2.7-2c2,0,2.7,0.7,2.7,2V108.3z"/>
			<polygon points="283.6,106.9 288.7,106.9 288.7,105.3 283.6,105.3 283.6,102.2 289.1,102.2 289.1,100.7 281.8,100.7 281.8,111.7 
				289.2,111.7 289.2,110.1 283.6,110.1 			"/>
			<path d="M275.3,105.4c-2.5-0.7-2.5-0.7-2.5-2c0-1.3,0.3-1.5,2.3-1.5c0.9,0,2.3,0.1,3.2,0.3l0.1-1.5c-1-0.3-2.4-0.4-3.4-0.4
				c-3.1,0-4.1,0.7-4.1,2.9c0,2.1,0.2,2.6,3.4,3.5c2.5,0.7,2.5,0.7,2.5,2c0,1.2-0.4,1.5-2.2,1.5c-1.1,0-2.4-0.2-3.6-0.5l-0.2,1.4
				c1.1,0.4,2.7,0.7,3.8,0.7c3.4,0,4-1,4-3.1C278.7,106.7,278.6,106.3,275.3,105.4z"/>
			<path d="M299.2,108.4c0,1.2-0.7,1.9-2.6,1.9c-2,0-2.7-0.7-2.7-1.9v-7.7h-1.8v7.9c0,1.8,1.1,3.4,4.5,3.4c3.4,0,4.5-1.5,4.5-3.4
				v-7.9h-1.8V108.4z"/>
			<polygon points="107.3,111.7 109.1,111.7 109.1,107.2 114.3,107.2 114.3,105.6 109.1,105.6 109.1,102.2 114.7,102.2 114.7,100.7 
				107.3,100.7 			"/>
			<path d="M323.1,105.4c-2.5-0.7-2.5-0.7-2.5-2c0-1.3,0.3-1.5,2.3-1.5c0.9,0,2.2,0.1,3.2,0.3l0.1-1.5c-1-0.3-2.4-0.4-3.4-0.4
				c-3.1,0-4.1,0.7-4.1,2.9c0,2.1,0.1,2.6,3.4,3.5c2.5,0.7,2.5,0.7,2.5,2c0,1.2-0.4,1.5-2.2,1.5c-1.1,0-2.4-0.2-3.6-0.5l-0.3,1.4
				c1.1,0.4,2.7,0.7,3.8,0.7c3.4,0,4-1,4-3.1C326.5,106.7,326.4,106.3,323.1,105.4z"/>
			<polygon points="313.1,100.7 309.8,108.9 306.5,100.7 304.4,100.7 303.9,111.7 305.7,111.7 305.9,103.3 308.7,110.3 310.9,110.3 
				313.7,103.3 314,111.7 315.7,111.7 315.3,100.7 			"/>
			<g>
				<path d="M3.6,102.3H0v-1.6h9v1.6H5.4v9.4H3.6V102.3z"/>
				<path d="M21.7,109.8l2.6-9.1H26l-3.3,11h-2.2l-2.4-9.2l-2.4,9.2h-2.2l-3.3-11H12l2.6,9.1l2.5-9.1h2.1L21.7,109.8z"/>
				<path d="M36.4,108.4c0,1.9-1.1,3.5-4.5,3.5c-3.4,0-4.5-1.6-4.5-3.5V104c0-1.9,1.1-3.5,4.5-3.5c3.4,0,4.5,1.6,4.5,3.5V108.4z
					 M31.8,102.1c-2,0-2.7,0.7-2.7,2v4.3c0,1.3,0.7,2,2.7,2c1.9,0,2.7-0.7,2.7-2V104C34.6,102.7,33.8,102.1,31.8,102.1z"/>
			</g>
		</g>
		<g>
			<polygon points="346.8,111.8 348.6,111.8 348.6,107.3 353.9,107.3 353.9,105.7 348.6,105.7 348.6,102.2 354.3,102.2 354.3,100.7 
				346.8,100.7 			"/>
			<path d="M339,100.5c-3.5,0-4.6,1.6-4.6,3.6v4.5c0,1.9,1.1,3.6,4.6,3.6c3.5,0,4.6-1.7,4.6-3.6V104
				C343.5,102.1,342.4,100.5,339,100.5z M341.7,108.4c0,1.3-0.8,2-2.7,2c-2,0-2.8-0.7-2.8-2v-4.3c0-1.3,0.8-2,2.8-2
				c2,0,2.7,0.7,2.7,2V108.4z"/>
			<polygon points="461.5,105.3 456.3,105.3 456.3,100.7 454.4,100.7 454.4,111.8 456.3,111.8 456.3,106.9 461.5,106.9 461.5,111.8 
				463.3,111.8 463.3,100.7 461.5,100.7 			"/>
			<path d="M439.7,105.3v-1.8c0-1.8-0.8-2.9-3.5-2.9h-5v11.2h1.8v-3.7h3.1l2.5,3.7h2.1l-2.6-3.9
				C439.3,107.5,439.7,106.6,439.7,105.3z M437.9,105.2c0,1-0.3,1.4-1.6,1.4H433v-4.3h3.3c1.3,0,1.6,0.4,1.6,1.4V105.2z"/>
			<path d="M426.3,108.5c0,1.2-0.7,2-2.7,2s-2.7-0.7-2.7-2v-7.8h-1.8v8c0,1.9,1.1,3.4,4.5,3.4c3.4,0,4.5-1.5,4.5-3.4v-8h-1.8V108.5z
				"/>
			<path d="M414.8,106c1-0.4,1.2-1,1.2-1.8V103c0-1.5-0.8-2.3-2.8-2.3h-5.1v11.2h5.3c2.1,0,3-0.9,3-2.5v-1.2
				C416.5,107,415.9,106.4,414.8,106z M410,102.1h3.1c0.8,0,1.2,0.3,1.2,1v1.1c0,0.7-0.3,1.2-1.4,1.2H410V102.1z M414.7,109.2
				c0,0.7-0.3,1.2-1.4,1.2H410v-3.5h3.2c1.1,0,1.5,0.4,1.5,1.2V109.2z"/>
			<path d="M449.4,110.2c-0.7,0.1-1.4,0.2-2.3,0.2c-2,0-2.4-0.6-2.4-2V104c0-1.5,0.6-2,2.5-2c1,0,2.3,0.1,3.5,0.3l0.2-1.5
				c-1.1-0.2-2.3-0.3-3.5-0.3c-3.2,0-4.5,1-4.5,3.4v4.9c0,2.2,1.1,3.3,4.2,3.3c1.1,0,2.8-0.2,4.1-0.6v-4.9h-1.7V110.2z"/>
			<path d="M402,105.5c-2.5-0.7-2.5-0.8-2.5-2c0-1.3,0.3-1.5,2.3-1.5c0.9,0,2.3,0.2,3.2,0.3l0.2-1.5c-1-0.3-2.5-0.4-3.4-0.4
				c-3.1,0-4.1,0.7-4.1,3c0,2.1,0.2,2.7,3.4,3.5c2.6,0.7,2.6,0.7,2.6,2c0,1.2-0.4,1.5-2.2,1.5c-1.1,0-2.4-0.2-3.6-0.5l-0.3,1.4
				c1.1,0.4,2.7,0.7,3.8,0.7c3.5,0,4.1-1,4.1-3.1C405.5,106.8,405.3,106.4,402,105.5z"/>
			<path d="M366.2,100.7h-4.8v11.2h1.8v-3.6h2.9c2.7,0,3.5-1.1,3.5-2.9v-1.8C369.7,101.8,368.9,100.7,366.2,100.7z M367.8,105.2
				c0,1-0.3,1.4-1.6,1.4h-3v-4.4h3c1.3,0,1.6,0.4,1.6,1.4V105.2z"/>
			<polygon points="376.5,102.3 380.2,102.3 380.2,111.8 382,111.8 382,102.3 385.7,102.3 385.7,100.7 376.5,100.7 			"/>
			<rect x="372.4" y="100.7" width="1.8" height="11.2"/>
			<polygon points="386.6,102.3 390.2,102.3 390.2,111.8 392,111.8 392,102.3 395.7,102.3 395.7,100.7 386.6,100.7 			"/>
		</g>
	</g>
</g>
</svg>
