<?xml version="1.0" encoding="UTF-8" standalone="no"?>
<!DOCTYPE svg PUBLIC "-//W3C//DTD SVG 1.1//EN" "http://www.w3.org/Graphics/SVG/1.1/DTD/svg11.dtd">
<svg width="100%" height="100%" viewBox="0 0 1000 26" version="1.1" xmlns="http://www.w3.org/2000/svg" xmlns:xlink="http://www.w3.org/1999/xlink" xml:space="preserve" style="fill-rule:evenodd;clip-rule:evenodd;stroke-linejoin:round;stroke-miterlimit:1.41421;">
    <g transform="matrix(0.895407,0,0,0.895407,0,0)">
        <path d="M288.056,0L288.056,19.477C288.056,24.047 285.371,27.828 277.025,27.828C268.683,27.828 266,24.047 266,19.477L266,0L270.461,0L270.461,19.121C270.461,22.16 272.093,23.891 277.025,23.891C281.966,23.891 283.59,22.16 283.59,19.121L283.59,0L288.056,0Z" style="fill:rgb(26,25,25);"/>
    </g>
    <g transform="matrix(0.895407,0,0,0.895407,0,0)">
        <path d="M306.4,28.355C303.56,28.355 299.679,27.777 297,26.726L297.626,23.207C300.517,24.051 303.775,24.523 306.451,24.523C311.019,24.523 311.916,23.734 311.916,20.851C311.916,17.699 311.916,17.539 305.666,15.91C297.685,13.808 297.314,12.441 297.314,7.297C297.314,1.785 299.837,0 307.392,0C309.709,0 313.226,0.371 315.744,1.004L315.375,4.668C313.013,4.203 309.601,3.836 307.451,3.836C302.459,3.836 301.779,4.308 301.779,7.461C301.779,10.504 301.83,10.656 307.919,12.34C315.955,14.5 316.376,15.539 316.376,20.738C316.376,25.84 314.853,28.355 306.4,28.355Z" style="fill:rgb(26,25,25);"/>
    </g>
    <g transform="matrix(0.895407,0,0,0.895407,0,0)">
        <path d="M325,0L343.121,0L342.677,3.891L329.463,3.891L329.463,11.559L339.152,11.559L339.152,15.442L329.463,15.442L329.463,23.418L343.174,23.418L343.174,27.313L325,27.313L325,0Z" style="fill:rgb(26,25,25);"/>
    </g>
    <g transform="matrix(0.895407,0,0,0.895407,0,0)">
        <path d="M373.053,0L373.053,19.477C373.053,24.047 370.379,27.828 362.025,27.828C353.678,27.828 351,24.047 351,19.477L351,0L355.465,0L355.465,19.121C355.465,22.16 357.094,23.891 362.025,23.891C366.965,23.891 368.59,22.16 368.59,19.121L368.59,0L373.053,0Z" style="fill:rgb(26,25,25);"/>
    </g>
    <g transform="matrix(0.895407,0,0,0.895407,0,0)">
        <path d="M531.586,18.313L537.568,18.313L534.552,7.356L531.586,18.313ZM539.316,24.406L529.838,24.406L528.674,28.528L521,28.528L529.732,1L539.367,1L548.161,28.528L540.484,28.528L539.316,24.406Z" style="fill:rgb(26,25,25);"/>
    </g>
    <g transform="matrix(0.895407,0,0,0.895407,0,0)">
        <path d="M565.91,7.297L560.832,7.297L560.832,15.031L565.91,15.031C567.873,15.031 568.617,14.239 568.617,12.649L568.617,9.574C568.617,8.039 567.873,7.297 565.91,7.297ZM565.386,21.172L560.832,21.172L560.832,28.528L553,28.528L553,1L566.123,1C573.806,1 576.24,3.969 576.24,9.211L576.24,12.914C576.24,16.09 575.335,17.844 572.957,19.535L578.996,28.528L570.257,28.528L565.386,21.172Z" style="fill:rgb(26,25,25);"/>
    </g>
    <g transform="matrix(0.895407,0,0,0.895407,0,0)">
        <path d="M596.171,28.528L588.339,28.528L588.339,7.774L581,7.774L581,1L603.496,1L603.496,7.774L596.171,7.774L596.171,28.528Z" style="fill:rgb(26,25,25);"/>
    </g>
    <g transform="matrix(0.895407,0,0,0.895407,0,0)">
        <path d="M410.994,1L405.688,1L397.5,23.644L389.307,1L384.006,1L382,28.305L386.358,28.305L387.834,7.515L395.303,28.305L399.746,28.305L407.162,7.515L408.647,28.305L413,28.305L410.994,1Z" style="fill:rgb(26,25,25);"/>
    </g>
    <g transform="matrix(0.895407,0,0,0.895407,0,0)">
        <path d="M256,1L250.695,1L242.502,23.644L234.306,1L229.006,1L227,28.305L231.357,28.305L232.838,7.515L240.303,28.305L244.748,28.305L252.166,7.515L253.648,28.305L258.004,28.305L256,1Z" style="fill:rgb(26,25,25);"/>
    </g>
    <g transform="matrix(0.895407,0,0,0.895407,0,0)">
        <path d="M10.755,24.668C12.872,24.668 16.157,24.41 18.537,23.984L18.911,27.742C15.993,28.383 13.135,28.594 10.697,28.594C2.862,28.594 0,25.836 0,20.223L0,8.367C0,2.75 2.862,0 10.697,0C13.135,0 15.993,0.207 18.911,0.844L18.537,4.602C16.157,4.18 12.872,3.914 10.755,3.914C6.254,3.914 4.504,4.973 4.504,8.676L4.504,19.902C4.504,23.613 6.254,24.668 10.755,24.668Z" style="fill:rgb(26,25,25);"/>
    </g>
    <g transform="matrix(0.895407,0,0,0.895407,0,0)">
        <path d="M37.977,3.34L33,17.739L42.953,17.739L37.977,3.34ZM50.948,27.54L46.447,27.54L44.116,21.395L31.783,21.395L29.503,27.54L25,27.54L35.223,0L40.73,0L50.948,27.54Z" style="fill:rgb(26,25,25);"/>
    </g>
    <g transform="matrix(0.895407,0,0,0.895407,0,0)">
        <path d="M61.504,14.618L69.602,14.618C72.731,14.618 73.467,13.563 73.467,11.071L73.467,7.465C73.467,4.977 72.731,3.918 69.602,3.918L61.504,3.918L61.504,14.618ZM69.071,18.434L61.504,18.434L61.504,27.54L57,27.54L57,0L69.34,0C76.008,0 77.971,2.7 77.971,7.051L77.971,11.387C77.971,14.563 76.911,16.84 73.788,17.848L80.301,27.54L75.217,27.54L69.071,18.434Z" style="fill:rgb(26,25,25);"/>
    </g>
    <g transform="matrix(0.895407,0,0,0.895407,0,0)">
        <path d="M92.287,5.457L92.287,27.54L88,27.54L88,0L93.66,0L106.582,22.082L106.582,0L110.873,0L110.873,27.54L105.209,27.54L92.287,5.457Z" style="fill:rgb(26,25,25);"/>
    </g>
    <g transform="matrix(0.895407,0,0,0.895407,0,0)">
        <path d="M121,0L139.268,0L138.201,3.918L125.498,3.918L125.498,11.649L134.984,11.649L134.984,15.571L125.498,15.571L125.498,23.625L139.318,23.625L139.318,27.54L121,27.54L121,0Z" style="fill:rgb(26,25,25);"/>
    </g>
    <g transform="matrix(0.895407,0,0,0.895407,0,0)">
        <path d="M162.14,15.246L162.14,24.148C160.504,24.465 158.597,24.668 156.484,24.668C151.609,24.668 150.49,23.242 150.49,19.859L150.49,8.789C150.49,4.973 151.93,3.965 156.691,3.965C159.129,3.965 162.306,4.18 165.222,4.656L165.642,0.844C162.996,0.258 159.873,0 157.004,0C149.012,0 146,2.434 146,8.309L146,20.332C146,25.73 148.59,28.594 156.426,28.594C159.072,28.594 163.365,28.168 166.433,27.215L166.433,15.246L162.14,15.246Z" style="fill:rgb(26,25,25);"/>
    </g>
    <g transform="matrix(0.895407,0,0,0.895407,0,0)">
        <rect x="176" y="0" width="4.496" height="27.539" style="fill:rgb(26,25,25);"/>
    </g>
    <g transform="matrix(0.895407,0,0,0.895407,0,0)">
        <path d="M190,0L208.278,0L207.201,3.918L194.508,3.918L194.508,11.649L203.992,11.649L203.992,15.571L194.508,15.571L194.508,23.625L208.328,23.625L208.328,27.54L190,27.54L190,0Z" style="fill:rgb(26,25,25);"/>
    </g>
    <g transform="matrix(0.895407,0,0,0.895407,0,0)">
        <rect x="159" y="14" width="8.013" height="4.269" style="fill:rgb(26,25,25);"/>
    </g>
    <g transform="matrix(0.895407,0,0,0.895407,0,0)">
        <path d="M430.488,28.613C427.623,28.613 423.709,28.027 421,26.969L421.636,23.418C424.552,24.273 427.836,24.742 430.543,24.742C435.148,24.742 436.052,23.953 436.052,21.039C436.052,17.855 436.052,17.695 429.744,16.054C421.691,13.941 421.318,12.558 421.318,7.359C421.318,1.8 423.861,0 431.494,0C433.828,0 437.377,0.367 439.921,1.008L439.548,4.707C437.158,4.238 433.716,3.875 431.546,3.875C426.511,3.875 425.824,4.347 425.824,7.527C425.824,10.597 425.879,10.758 432.021,12.449C440.127,14.621 440.554,15.683 440.554,20.937C440.554,26.066 439.015,28.613 430.488,28.613Z" style="fill:rgb(26,25,25);"/>
    </g>
    <g transform="matrix(0.895407,0,0,0.895407,0,0)">
        <path d="M629.914,4.328L624.965,18.676L634.877,18.676L629.914,4.328ZM642.84,28.43L638.355,28.43L636.033,22.308L623.746,22.308L621.48,28.43L617,28.43L627.172,1L632.658,1L642.84,28.43Z" style="fill:rgb(26,25,25);"/>
    </g>
    <g transform="matrix(0.895407,0,0,0.895407,0,0)">
        <path d="M654.274,6.433L654.274,28.43L650,28.43L650,1L655.645,1L668.51,23L668.51,1L672.786,1L672.786,28.43L667.139,28.43L654.274,6.433Z" style="fill:rgb(26,25,25);"/>
    </g>
    <g transform="matrix(0.895407,0,0,0.895407,0,0)">
        <path d="M686.484,24.523L692.65,24.523C696.818,24.523 698.191,23.101 698.191,19.777L698.191,9.656C698.191,6.332 696.818,4.902 692.65,4.902L686.484,4.902L686.484,24.523ZM692.969,1C700.725,1 702.676,4.594 702.676,9.656L702.676,19.777C702.676,24.848 700.725,28.43 692.969,28.43L682,28.43L682,1L692.969,1Z" style="fill:rgb(26,25,25);"/>
    </g>
    <g transform="matrix(0.895407,0,0,0.895407,0,0)">
        <path d="M728.387,11.719L728.387,28.441L721,28.441L721,1L730.285,1L739.416,17.781L739.416,1L746.805,1L746.805,28.441L737.52,28.441L728.387,11.719Z" style="fill:rgb(26,25,25);"/>
    </g>
    <g transform="matrix(0.895407,0,0,0.895407,0,0)">
        <path d="M762.552,18.254L768.517,18.254L765.507,7.336L762.552,18.254ZM770.255,24.324L760.81,24.324L759.65,28.441L752,28.441L760.709,1L770.31,1L779.066,28.441L771.414,28.441L770.255,24.324Z" style="fill:rgb(26,25,25);"/>
    </g>
    <g transform="matrix(0.895407,0,0,0.895407,0,0)">
        <path d="M807,20.32L807,1L814.813,1L814.813,19.418C814.813,21.265 815.973,22.211 818.93,22.211C821.828,22.211 823.043,21.265 823.043,19.418L823.043,1L830.852,1L830.852,20.32C830.852,24.586 828.264,28.965 818.93,28.965C809.588,28.965 807,24.586 807,20.32Z" style="fill:rgb(26,25,25);"/>
    </g>
    <g transform="matrix(0.895407,0,0,0.895407,0,0)">
        <path d="M849.879,7.281L844.812,7.281L844.812,14.988L849.879,14.988C851.828,14.988 852.57,14.191 852.57,12.609L852.57,9.55C852.57,8.019 851.828,7.281 849.879,7.281ZM849.351,21.109L844.812,21.109L844.812,28.441L837,28.441L837,1L850.086,1C857.738,1 860.166,3.957 860.166,9.183L860.166,12.867C860.166,16.039 859.269,17.781 856.898,19.469L862.914,28.441L854.201,28.441L849.351,21.109Z" style="fill:rgb(26,25,25);"/>
    </g>
    <g transform="matrix(0.895407,0,0,0.895407,0,0)">
        <path d="M876.551,18.254L882.514,18.254L879.506,7.336L876.551,18.254ZM884.254,24.324L874.81,24.324L873.648,28.441L866,28.441L874.709,1L884.307,1L893.062,28.441L885.416,28.441L884.254,24.324Z" style="fill:rgb(26,25,25);"/>
    </g>
    <g transform="matrix(0.895407,0,0,0.895407,0,0)">
        <path d="M898,1L905.805,1L905.805,21.687L917.311,21.687L917.311,28.441L898,28.441L898,1Z" style="fill:rgb(26,25,25);"/>
    </g>
    <g transform="matrix(0.895407,0,0,0.895407,0,0)">
        <path d="M794.201,28.575L786.351,28.575L786.351,7.785L779,7.785L779,1L801.533,1L801.533,7.785L794.201,7.785L794.201,28.575Z" style="fill:rgb(26,25,25);"/>
    </g>
    <g transform="matrix(0.895407,0,0,0.895407,0,0)">
        <path d="M950.619,18.046L941.815,18.046L941.815,28.437L934,28.437L934,1L941.815,1L941.815,11.285L950.619,11.285L950.619,1L958.436,1L958.436,28.437L950.619,28.437L950.619,18.046Z" style="fill:rgb(26,25,25);"/>
    </g>
    <g transform="matrix(0.895407,0,0,0.895407,0,0)">
        <rect x="967" y="1" width="7.812" height="27.437" style="fill:rgb(26,25,25);"/>
    </g>
    <g transform="matrix(0.895407,0,0,0.895407,0,0)">
        <path d="M982,26.602L983.263,20.793C985.64,21.485 989.121,22.118 992.023,22.118C994.925,22.118 995.507,21.539 995.507,19.95C995.507,18.211 995.187,17.789 990.23,17C983.054,15.832 982.316,13.039 982.316,8.024C982.316,2.012 985.955,0 993.185,0C995.82,0 999.941,0.426 1002.58,1.164L1001.69,7.336C998.623,6.703 995.72,6.387 993.236,6.387C990.707,6.387 990.125,6.766 990.125,8.289C990.125,10.141 990.386,10.399 995.086,11.247C1002.8,12.622 1003.32,14.411 1003.32,19.582C1003.32,25.497 1001.21,28.5 991.922,28.5C988.754,28.5 984.953,27.868 982,26.602Z" style="fill:rgb(26,25,25);"/>
    </g>
    <g transform="matrix(0.895407,0,0,0.895407,0,0)">
        <path d="M1045.08,6.766C1042.13,6.766 1040.81,7.918 1040.81,9.875L1040.81,18.629C1040.81,20.582 1042.13,21.743 1045.08,21.743C1048.04,21.743 1049.35,20.582 1049.35,18.629L1049.35,9.875C1049.35,7.918 1048.04,6.766 1045.08,6.766ZM1033,19.582L1033,8.918C1033,4.176 1036.48,0 1045.08,0C1053.68,0 1057.17,4.176 1057.17,8.918L1057.17,19.582C1057.17,24.336 1053.68,28.5 1045.08,28.5C1036.48,28.5 1033,24.336 1033,19.582Z" style="fill:rgb(26,25,25);"/>
    </g>
    <g transform="matrix(0.895407,0,0,0.895407,0,0)">
        <path d="M1076.88,7.277L1071.81,7.277L1071.81,14.98L1076.88,14.98C1078.83,14.98 1079.56,14.187 1079.56,12.609L1079.56,9.542C1079.56,8.015 1078.83,7.277 1076.88,7.277ZM1076.34,21.105L1071.81,21.105L1071.81,28.437L1064,28.437L1064,1L1077.09,1C1084.73,1 1087.16,3.953 1087.16,9.175L1087.16,12.871C1087.16,16.031 1086.27,17.777 1083.89,19.464L1089.91,28.437L1081.2,28.437L1076.34,21.105Z" style="fill:rgb(26,25,25);"/>
    </g>
    <g transform="matrix(0.895407,0,0,0.895407,0,0)">
        <path d="M1107.31,28.437L1099.5,28.437L1099.5,20.628L1090,1L1097.92,1L1103.4,13.339L1108.89,1L1116.81,1L1107.31,20.628L1107.31,28.437Z" style="fill:rgb(26,25,25);"/>
    </g>
    <g transform="matrix(0.895407,0,0,0.895407,0,0)">
        <path d="M1022.2,28.574L1014.35,28.574L1014.35,7.781L1007,7.781L1007,1L1029.54,1L1029.54,7.781L1022.2,7.781L1022.2,28.574Z" style="fill:rgb(26,25,25);"/>
    </g>
    <g transform="matrix(0.895407,0,0,0.895407,0,0)">
        <path d="M471.326,3.988C466.381,3.988 464.522,5.688 464.522,8.988L464.522,19.723C464.522,23.02 466.381,24.723 471.326,24.723C476.217,24.723 478.129,23.02 478.129,19.723L478.129,8.988C478.129,5.688 476.217,3.988 471.326,3.988ZM482.649,19.883C482.649,24.613 479.883,28.711 471.326,28.711C462.764,28.711 460,24.613 460,19.883L460,8.824C460,4.09 462.764,0 471.326,0C479.883,0 482.649,4.09 482.649,8.824L482.649,19.883Z" style="fill:rgb(26,25,25);"/>
    </g>
    <g transform="matrix(0.895407,0,0,0.895407,0,0)">
        <path d="M491,27.649L491,0L509.56,0L509.082,3.934L495.523,3.934L495.523,12.391L505.521,12.391L505.521,16.325L495.523,16.325L495.523,27.649L491,27.649Z" style="fill:rgb(26,25,25);"/>
    </g>
</svg>
