<?xml version="1.0" standalone="no"?><!DOCTYPE svg PUBLIC "-//W3C//DTD SVG 1.1//EN" "http://www.w3.org/Graphics/SVG/1.1/DTD/svg11.dtd"><svg width="100%" height="100%" viewBox="0 0 122 122" version="1.1" xmlns="http://www.w3.org/2000/svg" xmlns:xlink="http://www.w3.org/1999/xlink" xml:space="preserve" style="fill-rule:evenodd;clip-rule:evenodd;stroke-linejoin:round;stroke-miterlimit:1.41421;"><path d="M0.379,0.039l121.506,0l0,121.506l-121.506,0l0,-121.506ZM111.314,110.974l0,-77.642l-99.514,0l0,77.642l99.514,0ZM44.972,88.495l10.571,0l0,10.571l-10.571,0l0,-10.571ZM23.101,88.495l10.571,0l0,10.571l-10.571,0l0,-10.571ZM66.843,88.495l10.571,0l0,10.571l-10.571,0l0,-10.571ZM44.972,66.503l10.571,0l0,10.571l-10.571,0l0,-10.571ZM23.101,66.503l10.571,0l0,10.571l-10.571,0l0,-10.571ZM66.843,66.503l10.571,0l0,10.571l-10.571,0l0,-10.571ZM99.163,66.503l0,10.571l-10.571,0l0,-10.571l10.571,0ZM44.972,44.753l10.571,0l0,10.571l-10.571,0l0,-10.571ZM66.843,44.753l10.571,0l0,10.571l-10.571,0l0,-10.571ZM88.592,44.753l10.571,0l0,10.571l-10.571,0l0,-10.571ZM111.314,22.639l0,-12.029l-99.514,0l0,12.029l99.514,0Z" style="fill:#fff;"/></svg>