<svg role="image" width="100%" height="100%" viewBox="0 0 202 202" version="1.1" xmlns="http://www.w3.org/2000/svg" xmlns:xlink="http://www.w3.org/1999/xlink" xml:space="preserve" style="fill-rule:evenodd;clip-rule:evenodd;stroke-linejoin:round;stroke-miterlimit:1.41421;">
  <title>CMOA Logo</title>
  <desc>The CMOA Logo</desc>
  <g>
    <path  d="M0.171,201.606l94.982,0l0,-94.982l-94.982,0l0,94.982ZM17.078,123.531l61.169,0l0,61.168l-61.169,0l0,-61.168Z" style="fill:#231f20;fill-rule:nonzero;"/><path d="M106.596,106.624l0,16.908l78.075,0l0,20.283l-78.075,0l0,57.791l94.982,0l0,-94.982l-94.982,0ZM123.503,160.72l61.169,0l0,23.979l-61.169,0l0,-23.979Z" style="fill:#231f20;fill-rule:nonzero;"/><path d="M184.343,0.199l-30.256,70.37l-30.257,-70.37l-17.234,0l0,94.982l16.908,0l0,-53.141l22.127,53.141l16.911,0l22.128,-53.141l0,53.141l16.909,0l0,-94.982l-17.236,0Z" style="fill:#231f20;fill-rule:nonzero;"/><path d="M0.171,0.199l0,94.982l94.982,0l0,-33.194l-16.907,0l0,16.287l-61.168,0l0,-61.168l61.168,0l0,16.287l16.907,0l0,-33.194l-94.982,0Z" style="fill:#231f20;fill-rule:nonzero;"/>
</g>
</svg>
