<svg aria-labelledby="logo-title" xmlns="http://www.w3.org/2000/svg" fill-rule="evenodd" clip-rule="evenodd" stroke-linejoin="round" stroke-miterlimit="1.414">
  <title id="logo-title"> Carnegie Museum of Art Logo</title>
  <desc>The Carnegie Museum of Art bracket logo with wordmark</desc>
  <path d="M96.393 0H218v96.393H96.393v121.61H0V0h96.393z" fill-rule="nonzero"/><path d="M34.253 81.64h-4.726l-.717-2.447h-5.838l-.716 2.447h-4.724l5.375-16.346h5.933l5.413 16.346zm34.092-12.323h-4.51V81.64h-4.822V69.317h-4.52v-4.023h13.852v4.023zM42.18 81.64h-4.827V65.293h8.083c4.73 0 6.23 1.76 6.23 4.87v2.205c0 1.89-.557 2.925-2.022 3.93l3.718 5.342h-5.38l-3-4.368H42.18v4.368zm-18.13-6.066h3.684l-1.86-6.508-1.824 6.508zm21.255-6.54H42.18v4.592h3.125c1.207 0 1.667-.47 1.667-1.417v-1.827c0-.912-.46-1.35-1.667-1.35zM154.642 51.99c0 2.788-1.69 5.203-6.92 5.203s-6.92-2.415-6.92-5.2v-6.52c0-2.79 1.69-5.202 6.92-5.202s6.92 2.414 6.92 5.204v6.518zm-88.417 5.16c-1.746 0-4.136-.344-5.787-.97l.39-2.087c1.775.502 3.78.782 5.427.782 2.813 0 3.363-.47 3.363-2.182 0-1.87 0-1.966-3.845-2.932-4.912-1.244-5.14-2.057-5.14-5.112 0-3.268 1.55-4.33 6.203-4.33 1.423 0 3.59.22 5.142.594l-.23 2.177c-1.452-.28-3.553-.495-4.878-.495-3.07 0-3.49.278-3.49 2.15 0 1.806.032 1.9 3.78 2.897 4.943 1.28 5.205 1.9 5.205 4.988 0 3.024-.94 4.52-6.14 4.52zM55.11 40.626V52.19c0 2.713-1.652 4.957-6.788 4.957s-6.788-2.244-6.788-4.957V40.626h2.747v11.348c0 1.808 1.006 2.835 4.043 2.835 3.038 0 4.04-1.03 4.04-2.837V40.626h2.747zm52.51 0V52.19c0 2.713-1.645 4.957-6.787 4.957-5.136 0-6.787-2.244-6.787-4.957V40.626h2.75v11.348c0 1.808 1.002 2.835 4.037 2.835 3.04 0 4.04-1.03 4.04-2.837V40.626h2.748zm-80.758 13.6l5.045-13.443h3.263l1.234 16.21h-2.682l-.91-12.344-4.566 12.34H25.51l-4.597-12.34-.91 12.342H17.32l1.237-16.21h3.262l5.04 13.444zm95.436 0l5.04-13.443h3.268l1.235 16.21h-2.68l-.914-12.344-4.563 12.34h-2.735l-4.595-12.342-.91 12.342h-2.685l1.236-16.21h3.262l5.043 13.444zm40.4 2.652h-2.764V40.584h11.343l-.293 2.32h-8.286v4.98h6.11v2.32h-6.11v6.674zM88.574 42.935h-8.13v4.554H86.4v2.3h-5.96v4.736h8.437v2.312H77.693V40.625h11.153l-.273 2.31zm59.148-.314c-3.022 0-4.16 1.003-4.16 2.95v6.325c0 1.944 1.138 2.95 4.16 2.95 2.99 0 4.16-1.006 4.16-2.95V45.57c0-1.948-1.17-2.95-4.16-2.95zm-27.636-19.34v7.686c-1.893.564-4.535.817-6.165.817-4.825 0-6.42-1.7-6.42-4.908v-7.14c0-3.488 1.857-4.934 6.78-4.934 1.764 0 3.687.156 5.32.5l-.263 2.267a35.78 35.78 0 0 0-5.254-.41c-2.93 0-3.815.598-3.815 2.863v6.574c0 2.008.69 2.86 3.688 2.86a19.25 19.25 0 0 0 3.49-.314v-3.328h-2.296V23.28h4.936zm-95.89 6.174c1.305 0 3.326-.158 4.793-.41l.23 2.235a24.894 24.894 0 0 1-5.058.502c-4.827 0-6.588-1.636-6.588-4.97V19.77c0-3.333 1.76-4.97 6.588-4.97 1.5 0 3.26.126 5.056.503l-.23 2.232a32.92 32.92 0 0 0-4.793-.407c-2.77 0-3.85.628-3.85 2.83v6.665c0 2.203 1.08 2.83 3.85 2.83zm24.735 2.013h-2.77l-1.434-3.648H37.13l-1.403 3.647h-2.773l6.294-16.354h3.392l6.29 16.354zm6.376 0h-2.773V15.112h7.6c4.107 0 5.314 1.604 5.314 4.185v2.575c0 1.888-.655 3.24-2.576 3.84l4.01 5.754h-3.13l-3.783-5.407h-4.66v5.405zm89.718-14.027h-7.82v4.59h5.842v2.328h-5.842v4.783h8.51v2.327h-11.28V15.112h11.25l-.66 2.327zm-70.62 14.026H71.76V15.112h3.49l7.953 13.114V15.112h2.642v16.354H82.36L74.4 18.352v13.114zM102.31 17.44h-7.82v4.59h5.84v2.327h-5.84v4.783h8.506v2.326h-11.28V15.112h11.25l-.658 2.327zm26.09 14.025h-2.77V15.112h2.77v16.354zm-87.454-14.37l-3.066 8.55h6.128l-3.063-8.55zm19.348.344h-4.988v6.35h4.988c1.926 0 2.38-.626 2.38-2.106v-2.14c0-1.477-.454-2.105-2.38-2.105z" fill="#fff"/></svg>
