<?xml version="1.0" encoding="utf-8"?>
<!-- Generator: Adobe Illustrator 20.0.0, SVG Export Plug-In . SVG Version: 6.00 Build 0)  -->
<svg version="1.1" id="Layer_1" xmlns="http://www.w3.org/2000/svg" xmlns:xlink="http://www.w3.org/1999/xlink" x="0px" y="0px"
	 viewBox="0 0 16 16" style="enable-background:new 0 0 16 16;" xml:space="preserve">

<path class="path-visit" d="M12,6L8,1.8L4,6l-4,4.2l4,4.1l4-4.1l4,4.1l4-4.1L12,6L12,6L12,6z"/>

<polygon class="path-close" points="15.5,2.8 13.1,0.4 8,5.4 2.9,0.4 0.5,2.8 5.6,7.8 0.5,12.9 2.9,15.3 8,10.3 13.1,15.3 15.5,12.9
	10.4,7.8 "/>

<path class="path-search" d="M15.2,13.1l-3-3c0.6-0.9,0.9-2,0.9-3.2c0-3.6-3-6.6-6.6-6.6s-6.6,3-6.6,6.6s3,6.6,6.6,6.6
	c1.4,0,2.7-0.4,3.8-1.2l2.9,2.8c0.4,0.4,1,0.4,1.4,0l0.6-0.6C15.6,14.1,15.6,13.5,15.2,13.1z M6.5,9.6C5,9.6,3.8,8.4,3.8,6.9
	S5,4.2,6.5,4.2s2.7,1.2,2.7,2.7C9.3,8.4,8,9.6,6.5,9.6z"/>

<path class="path-hamburger" d="M0,0.8v2.8h16V0.8H0z M0,9.3h16V6.4H0V9.3z M0,14.9h16v-2.8H0V14.9z"/>
</svg>
