<?xml version="1.0" encoding="utf-8"?>
<!-- Generator: Adobe Illustrator 20.1.0, SVG Export Plug-In . SVG Version: 6.00 Build 0)  -->
<svg version="1.1" id="Layer_1" xmlns="http://www.w3.org/2000/svg" xmlns:xlink="http://www.w3.org/1999/xlink" x="0px" y="0px"
	 viewBox="0 0 254.4 129.8" enable-background="new 0 0 254.4 129.8" xml:space="preserve">
<g>
	<path fill="#FFFFFF" d="M11.3,18.2c-3.7,0-6.3-3.1-6.3-6.9v-0.1c0-3.8,2.6-6.8,6.3-6.8c2.2,0,3.9,0.9,5.6,2.5l3-3.5
		c-2-2-4.5-3.4-8.6-3.4C4.6,0,0,5.1,0,11.3v0.1c0,6.3,4.7,11.3,11.1,11.3c4.2,0,6.7-1.5,8.9-3.9l-3-3.1
		C15.3,17.2,13.8,18.2,11.3,18.2"/>
</g>
<polygon fill="#FFFFFF" points="122.7,0.4 122.7,13.9 112.5,0.4 108.1,0.4 108.1,22.3 112.8,22.3 112.8,8.4 123.3,22.3 127.4,22.3 
	127.4,0.4 "/>
<polygon fill="#FFFFFF" points="145,0.4 145,22.3 161.6,22.3 161.6,18 149.8,18 149.8,13.4 160,13.4 160,9.1 149.8,9.1 149.8,4.7 
	161.4,4.7 161.4,0.4 "/>
<g>
	<path fill="#FFFFFF" d="M188.6,13.9h4.8V17c-1.2,0.9-2.8,1.3-4.5,1.3c-3.9,0-6.6-2.9-6.6-6.9v-0.1c0-3.7,2.8-6.8,6.2-6.8
		c2.5,0,4,0.8,5.7,2.2l3-3.7c-2.3-1.9-4.6-3-8.5-3c-6.6,0-11.4,5.1-11.4,11.3v0.1c0,6.5,4.7,11.3,11.4,11.3c4,0,7-1.6,9.3-3.5V9.7
		h-9.4V13.9z"/>
</g>
<rect x="215.2" y="0.4" fill="#FFFFFF" width="4.8" height="21.9"/>
<polygon fill="#FFFFFF" points="237.8,0.4 237.8,22.3 254.4,22.3 254.4,18 242.6,18 242.6,13.4 252.8,13.4 252.8,9.1 242.6,9.1 
	242.6,4.7 254.2,4.7 254.2,0.4 "/>
<g>
	<path fill="#FFFFFF" d="M82.9,11.1H78V4.8h4.8c2.3,0,3.8,1.1,3.8,3.1V8C86.5,9.8,85.2,11.1,82.9,11.1 M92.1,22.4l-5.4-7.9
		c2.8-1,4.7-3.3,4.7-6.8V7.6c0-2.1-0.7-3.8-1.9-5c-1.4-1.4-3.6-2.2-6.3-2.2h-9.9v21.9h4.8v-7h3.8l4.8,7.1H92.1z"/>
</g>
<polygon fill="#FFFFFF" points="15.5,43.1 15.5,56.6 5.3,43.1 0.9,43.1 0.9,65 5.6,65 5.6,51.1 16.1,65 20.2,65 20.2,43.1 "/>
<polygon fill="#FFFFFF" points="42.5,56.1 52.8,56.1 52.8,51.9 42.5,51.9 42.5,47.4 54.2,47.4 54.2,43.1 37.8,43.1 37.8,65 54.3,65 
	54.3,60.7 42.5,60.7 "/>
<g>
	<path fill="#FFFFFF" d="M114.9,65.4c5.8,0,9.5-3.3,9.5-9.9V43.1h-4.8v12.5c0,3.5-1.8,5.3-4.7,5.3s-4.7-1.8-4.7-5.4V43.1h-4.8v12.5
		C105.5,62.1,109.1,65.4,114.9,65.4"/>
	<path fill="#FFFFFF" d="M150.5,51.9c-3.8-1-4.7-1.4-4.7-2.9v-0.1c0-1.1,1-1.9,2.8-1.9s3.7,0.8,5.7,2.2l2.5-3.6
		c-2.2-1.8-4.9-2.8-8.1-2.8c-4.4,0-7.6,2.6-7.6,6.6v0.1c0,4.3,2.8,5.6,7.2,6.7c3.6,0.9,4.4,1.6,4.4,2.8v0.1c0,1.3-1.2,2.1-3.1,2.1
		c-2.5,0-4.5-1-6.5-2.7l-2.8,3.4c2.6,2.3,5.9,3.5,9.2,3.5c4.7,0,8-2.4,8-6.8v-0.1C157.4,54.7,155,53.1,150.5,51.9"/>
</g>
<polygon fill="#FFFFFF" points="43.5,3.2 48.6,11 40,11 37.9,15.3 51.5,15.3 76.9,53.9 69.4,65 74.8,65 79.7,57.5 127.9,129.8 
	133.5,129.8 82.6,53.8 89.9,43.1 84.4,43.1 79.8,50.2 47,0.1 45,0.1 "/>
</svg>
