<?xml version="1.0" standalone="no"?><!DOCTYPE svg PUBLIC "-//W3C//DTD SVG 1.1//EN" "http://www.w3.org/Graphics/SVG/1.1/DTD/svg11.dtd"><svg width="100%" height="100%" viewBox="0 0 125 124" version="1.1" xmlns="http://www.w3.org/2000/svg" xmlns:xlink="http://www.w3.org/1999/xlink" xml:space="preserve" style="fill-rule:evenodd;clip-rule:evenodd;stroke-linejoin:round;stroke-miterlimit:1.41421;"><g id="search"><path d="M78.36,93.183c-2.606,1.704 -5.369,3.17 -8.246,4.367c-3.268,1.36 -6.68,2.373 -10.16,3.018c-3.054,0.566 -6.159,0.848 -9.265,0.848c-3.106,0 -6.211,-0.282 -9.265,-0.848c-3.48,-0.645 -6.892,-1.658 -10.16,-3.018c-5.829,-2.425 -11.187,-5.952 -15.73,-10.335c-4.314,-4.163 -7.883,-9.087 -10.487,-14.487c-2.261,-4.69 -3.787,-9.727 -4.51,-14.883c-0.745,-5.312 -0.645,-10.746 0.3,-16.027c0.824,-4.599 2.289,-9.08 4.345,-13.277c2.502,-5.109 5.871,-9.787 9.918,-13.786c4.268,-4.218 9.282,-7.671 14.749,-10.144c4.272,-1.934 8.814,-3.265 13.454,-3.944c1.48,-0.217 2.97,-0.369 4.464,-0.454c0.865,-0.049 1.73,-0.074 2.595,-0.082c0.218,-0.001 0.436,-0.001 0.653,0c0.866,0.008 1.731,0.033 2.595,0.082c1.494,0.085 2.984,0.237 4.465,0.454c4.64,0.679 9.181,2.01 13.454,3.944c5.005,2.265 9.632,5.35 13.653,9.093c4.385,4.082 8.042,8.94 10.741,14.289c2.15,4.26 3.69,8.822 4.561,13.514c0.997,5.378 1.116,10.921 0.357,16.338c-0.723,5.156 -2.249,10.193 -4.51,14.883c-0.724,1.501 -1.523,2.965 -2.391,4.387l27.363,27.363c4.335,4.335 4.335,11.364 0,15.699c-0.041,0.042 -0.083,0.083 -0.125,0.125c-4.335,4.335 -11.363,4.335 -15.699,0l-27.119,-27.119ZM50.458,15.131c-1.667,0.016 -3.331,0.135 -4.98,0.377c-3.258,0.477 -6.446,1.411 -9.445,2.769c-3.526,1.595 -6.784,3.77 -9.617,6.407c-2.985,2.778 -5.492,6.066 -7.374,9.684c-1.544,2.969 -2.664,6.155 -3.315,9.437c-0.779,3.928 -0.891,7.991 -0.335,11.957c0.498,3.55 1.537,7.018 3.074,10.257c1.811,3.816 4.307,7.302 7.33,10.252c3.18,3.105 6.936,5.613 11.03,7.346c2.15,0.91 4.39,1.606 6.677,2.074c2.288,0.469 4.62,0.71 6.955,0.724c2.266,0.015 4.534,-0.183 6.762,-0.596c2.372,-0.44 4.699,-1.123 6.931,-2.036c4.117,-1.683 7.904,-4.146 11.122,-7.214c3.109,-2.964 5.68,-6.486 7.546,-10.356c1.588,-3.293 2.659,-6.83 3.167,-10.451c0.576,-4.113 0.434,-8.329 -0.424,-12.392c-0.765,-3.622 -2.106,-7.117 -3.951,-10.325c-1.782,-3.099 -4.033,-5.926 -6.649,-8.361c-2.727,-2.538 -5.848,-4.65 -9.223,-6.226c-2.911,-1.36 -6.006,-2.321 -9.176,-2.846c-1.714,-0.285 -3.445,-0.437 -5.181,-0.475c-0.308,-0.005 -0.616,-0.007 -0.924,-0.006Z" style="fill:#000;"/></g></svg>