<svg aria-labelledby="wm2-title" viewBox="0 0 281 49" xmlns="http://www.w3.org/2000/svg" fill-rule="evenodd" clip-rule="evenodd" stroke-linejoin="round" stroke-miterlimit="1.414">
  <title id="wm2-title">Carnegie Museum of Art Wordmark</title>
  <desc>The Carnegie Museum of Art 2 line wordmark</desc>
  <clipPath><path d="M.473.516h280.34v48.422H.473z"/></clipPath><g clip-path="url(#a)" fill="#231f20" fill-rule="nonzero"><path d="M196.32 1.055v13.2c0 3.096-1.82 5.66-7.478 5.66-5.655 0-7.472-2.564-7.472-5.66v-13.2h3.025v12.953c0 2.062 1.105 3.235 4.447 3.235 3.346 0 4.452-1.173 4.452-3.235V1.055h3.025zM208.56 19.914c-1.924 0-4.555-.394-6.37-1.106l.423-2.383c1.96.57 4.166.89 5.982.89 3.097 0 3.7-.532 3.7-2.487 0-2.14 0-2.247-4.237-3.347-5.41-1.423-5.654-2.348-5.654-5.838 0-3.737 1.704-4.944 6.832-4.944 1.565 0 3.95.245 5.66.676l-.25 2.487c-1.602-.318-3.915-.563-5.375-.563-3.38 0-3.843.317-3.843 2.452 0 2.062.036 2.17 4.162 3.31 5.443 1.458 5.73 2.17 5.73 5.695 0 3.45-1.033 5.16-6.76 5.16M221.19 1.055h12.278l-.3 2.635h-8.952v5.195h6.563v2.63h-6.564v5.41h9.292v2.635H221.19V1.055zM254.148 1.055v13.2c0 3.096-1.818 5.66-7.476 5.66-5.66 0-7.472-2.564-7.472-5.66v-13.2h3.025v12.953c0 2.062 1.1 3.235 4.447 3.235s4.45-1.173 4.45-3.235V1.055h3.026zM279.454 1.23h-3.593l-5.552 15.35-5.552-15.35h-3.593l-1.36 18.505h2.954l1.002-14.09 5.058 14.09h3.012l5.025-14.09 1.006 14.09h2.954l-1.36-18.505zM174.36 1.23h-3.593l-5.554 15.35-5.55-15.35h-3.595l-1.36 18.505h2.952l1.004-14.09 5.06 14.09h3.016l5.024-14.09 1.002 14.09h2.953L174.36 1.23zM7.775 17.27c1.438 0 3.667-.18 5.284-.468l.252 2.553c-1.98.433-3.922.577-5.575.577-5.322 0-7.264-1.87-7.264-5.683V6.195c0-3.81 1.942-5.68 7.264-5.68 1.653 0 3.595.143 5.575.575l-.253 2.552c-1.618-.286-3.847-.465-5.285-.465-3.057 0-4.245.718-4.245 3.235v7.623c0 2.517 1.188 3.235 4.245 3.235M26.243 3.14l-3.38 9.778h6.76l-3.38-9.778zm8.808 16.432h-3.056L30.412 15.4h-8.375l-1.548 4.172H17.43l6.94-18.7h3.74l6.94 18.7zM42.08 10.798h5.498c2.124 0 2.625-.717 2.625-2.408V5.944c0-1.69-.5-2.41-2.625-2.41h-5.5V10.8zm5.138 2.592h-5.14v6.18h-3.056V.875H47.4c4.53 0 5.86 1.834 5.86 4.785v2.944c0 2.157-.72 3.703-2.84 4.386l4.423 6.58H51.39l-4.172-6.18zM63.137 4.578v14.994h-2.912V.875h3.845l8.773 14.993V.875h2.912v18.697H71.91L63.137 4.578zM82.23.874h12.404l-.725 2.66h-8.625v5.25h6.44v2.66h-6.44v5.47h9.384v2.658H82.23V.874zM119.627.873h3.052V19.57h-3.053zM129.333.874h12.406l-.73 2.66h-8.62v5.25h6.44v2.66h-6.44v5.47h9.383v2.658h-12.44V.874zM108.07 10.21v2.898h2.53v3.805a20.45 20.45 0 0 1-3.846.357c-3.308 0-4.066-.972-4.066-3.27V6.485c0-2.59.973-3.272 4.206-3.272 1.656 0 3.815.144 5.79.466l.29-2.587c-1.8-.396-3.92-.574-5.865-.574-5.43 0-7.476 1.654-7.476 5.643v8.163c0 3.667 1.76 5.61 7.08 5.61 1.798 0 4.712-.29 6.8-.935V10.21h-5.445zM49.942 41.63h4.063l-2.05-7.438-2.013 7.44zm5.25 4.14h-6.437l-.788 2.798h-5.213l5.93-18.69h6.542l5.97 18.69h-5.212l-.792-2.798zM73.382 34.155h-3.448v5.25h3.448c1.333 0 1.836-.54 1.836-1.62v-2.087c0-1.044-.503-1.543-1.836-1.543m-.355 9.418h-3.093v4.995h-5.32v-18.69h8.914c5.214 0 6.868 2.01 6.868 5.57v2.52c0 2.157-.615 3.344-2.23 4.492l4.1 6.108h-5.93l-3.31-4.995zM93.815 48.567H88.5v-14.09h-4.986v-4.6h15.274v4.6h-4.973v14.09zM8.15 32.277c-3.332 0-4.584 1.146-4.584 3.37v7.234c0 2.222 1.252 3.37 4.585 3.37 3.298 0 4.587-1.148 4.587-3.37V35.65c0-2.225-1.29-3.37-4.586-3.37m7.63 10.713c0 3.187-1.863 5.948-7.63 5.948-5.768 0-7.63-2.76-7.63-5.947v-7.45c0-3.192 1.862-5.95 7.63-5.95 5.767 0 7.63 2.758 7.63 5.95v7.45zM21.618 48.58V29.95h12.507l-.323 2.65h-9.137v5.695h6.737v2.65h-6.737v7.634h-3.047z"/></g></svg>
