<svg role="image" viewBox="0 0 410 21" xmlns="http://www.w3.org/2000/svg" fill-rule="evenodd" clip-rule="evenodd" stroke-linejoin="round" stroke-miterlimit="1.414">
  <title>Carnegie Museum of Art Wordmark</title>

  <desc>The Carnegie Museum of Art 1 line wordmark</desc>
  <clipPath><path d="M.127.435h409.066V20.75H.127z"/></clipPath><g clip-path="url(#a)" fill="#231f20" fill-rule="nonzero"><path d="M204.96 1v13.805c0 3.238-1.9 5.92-7.818 5.92-5.917 0-7.815-2.682-7.815-5.92V1h3.162v13.546c0 2.157 1.156 3.384 4.652 3.384 3.498 0 4.655-1.227 4.655-3.384V1h3.164zM217.764 20.724c-2.012 0-4.765-.412-6.665-1.157l.444-2.494c2.05.6 4.357.932 6.257.932 3.24 0 3.87-.557 3.87-2.602 0-2.236 0-2.35-4.43-3.5-5.658-1.487-5.914-2.457-5.914-6.106 0-3.908 1.78-5.172 7.145-5.172 1.637 0 4.133.257 5.92.706l-.262 2.603c-1.675-.332-4.095-.59-5.62-.59-3.537 0-4.02.333-4.02 2.565 0 2.157.037 2.27 4.353 3.463 5.695 1.527 5.995 2.27 5.995 5.96 0 3.607-1.08 5.394-7.07 5.394M230.974 1h12.84l-.312 2.757h-9.364V9.19h6.864v2.75h-6.864V17.6h9.72v2.756h-12.884V1zM265.444 1v13.805c0 3.238-1.9 5.92-7.82 5.92s-7.815-2.682-7.815-5.92V1h3.163v13.546c0 2.157 1.15 3.384 4.652 3.384 3.5 0 4.656-1.227 4.656-3.384V1h3.164zM291.91 1.182h-3.756l-5.808 16.056-5.807-16.056h-3.76l-1.42 19.355h3.088L275.495 5.8l5.293 14.737h3.15L289.192 5.8l1.054 14.737h3.087L291.91 1.182zM181.993 1.182h-3.757l-5.808 16.056-5.807-16.056h-3.757l-1.422 19.355h3.088l1.05-14.737 5.292 14.737h3.155L179.28 5.8l1.048 14.737h3.09l-1.425-19.355zM358.106 13.108h4.25l-2.145-7.78-2.104 7.78zm5.49 4.33h-6.732l-.826 2.925h-5.45l6.2-19.548h6.844l6.244 19.548h-5.45l-.83-2.926zM382.62 5.29h-3.604v5.49h3.605c1.394 0 1.923-.563 1.923-1.696v-2.18c0-1.09-.53-1.615-1.922-1.615m-.37 9.85h-3.234v5.222h-5.566V.814h9.324c5.453 0 7.182 2.106 7.182 5.827v2.635c0 2.26-.64 3.5-2.332 4.7l4.29 6.387h-6.205l-3.46-5.223zM403.993 20.363h-5.563V5.626h-5.21V.816h15.973v4.81h-5.2v14.737zM7.764 17.958c1.504 0 3.836-.187 5.526-.49l.265 2.67c-2.07.454-4.1.604-5.83.604-5.567 0-7.598-1.956-7.598-5.943V6.376C.127 2.39 2.157.435 7.724.435c1.73 0 3.76.15 5.83.6l-.264 2.67c-1.69-.298-4.022-.487-5.526-.487-3.197 0-4.44.752-4.44 3.384v7.973c0 2.632 1.243 3.383 4.44 3.383M27.08 3.18l-3.535 10.226h7.07L27.08 3.18zm9.212 17.185h-3.197l-1.655-4.36h-8.76l-1.62 4.36h-3.196L25.124.81h3.91l7.258 19.555zM43.642 11.19h5.752c2.223 0 2.746-.75 2.746-2.52V6.112c0-1.767-.523-2.52-2.746-2.52h-5.752v7.597zm5.376 2.71h-5.376v6.465h-3.197V.81h8.763c4.736 0 6.13 1.918 6.13 5.004v3.08c0 2.256-.754 3.874-2.972 4.588l4.625 6.883h-3.61L49.02 13.9zM65.667 4.684v15.68H62.62V.81h4.023L75.82 16.49V.81h3.045v19.555h-4.022l-9.176-15.68zM85.637.81H98.61l-.76 2.783h-9.02v5.49h6.736v2.783H88.83v5.72h9.816v2.78h-13.01V.81zM124.75.81h3.193v19.556h-3.193zM134.9.81h12.976l-.762 2.783h-9.016v5.49h6.735v2.783h-6.735v5.72h9.813v2.78H134.9V.81zM112.66 10.575v3.03h2.647v3.98a21.37 21.37 0 0 1-4.022.374c-3.46 0-4.252-1.018-4.252-3.422V6.676c0-2.707 1.018-3.42 4.398-3.42 1.735 0 3.99.15 6.06.488l.3-2.71c-1.88-.413-4.098-.598-6.134-.598-5.675 0-7.817 1.73-7.817 5.902v8.538c0 3.836 1.838 5.866 7.405 5.866 1.88 0 4.927-.3 7.108-.976v-9.19h-5.692zM314.397 3.325c-3.486 0-4.796 1.198-4.796 3.526v7.566c0 2.323 1.31 3.524 4.797 3.524 3.448 0 4.797-1.2 4.797-3.524V6.85c0-2.327-1.35-3.525-4.797-3.525m7.98 11.205c0 3.334-1.948 6.22-7.98 6.22-6.035 0-7.982-2.886-7.982-6.22V6.737c0-3.34 1.947-6.223 7.982-6.223 6.032 0 7.98 2.884 7.98 6.223v7.793zM328.482 20.375V.89h13.082l-.34 2.773h-9.556V9.62h7.048v2.77h-7.048v7.985h-3.186z"/></g></svg>
