<svg aria-labelledby="wm3-title" viewBox="0 0 154 68" xmlns="http://www.w3.org/2000/svg" fill-rule="evenodd" clip-rule="evenodd" stroke-linejoin="round" stroke-miterlimit="1.414">
  <title id="wm3-title">Carnegie Museum of Art Wordmark</title>
  <desc>The Carnegie Museum of Art 3 line wordmark</desc>
  <path d="M17.527 67.088H12.82l-.714-2.437H6.292L5.58 67.09H.874l5.353-16.28h5.908l5.39 16.28zm33.95-12.272h-4.49v12.272h-4.804V54.816h-4.5V50.81h13.794v4.006zM25.42 67.086h-4.807V50.81h8.05c4.71 0 6.203 1.752 6.203 4.85v2.194c0 1.88-.554 2.913-2.013 3.914l3.703 5.32H31.2l-2.99-4.35h-2.79v4.35zm-18.055-6.04h3.67l-1.85-6.48-1.82 6.48zm21.168-6.51H25.42v4.57h3.113c1.202 0 1.66-.468 1.66-1.41v-1.818c0-.908-.458-1.343-1.66-1.343zm108.88-16.974c0 2.775-1.68 5.18-6.89 5.18s-6.89-2.405-6.89-5.18v-6.49c0-2.78 1.68-5.182 6.89-5.182s6.89 2.402 6.89 5.18v6.492zm-88.048 5.135c-1.74 0-4.118-.343-5.763-.964l.388-2.08c1.77.5 3.765.778 5.405.778 2.8 0 3.35-.467 3.35-2.172 0-1.86 0-1.958-3.83-2.92-4.89-1.24-5.118-2.05-5.118-5.092 0-3.253 1.544-4.313 6.177-4.313 1.417 0 3.574.22 5.12.593l-.23 2.17c-1.445-.278-3.537-.493-4.856-.493-3.057 0-3.476.277-3.476 2.14 0 1.8.032 1.892 3.763 2.886 4.924 1.275 5.185 1.89 5.185 4.966 0 3.012-.936 4.5-6.115 4.5zm-11.07-16.453V37.76c0 2.702-1.644 4.936-6.76 4.936-5.113 0-6.758-2.234-6.758-4.936V26.244h2.735v11.3c0 1.802 1 2.825 4.024 2.825 3.027 0 4.023-1.024 4.023-2.825v-11.3h2.736zm52.294 0V37.76c0 2.702-1.64 4.936-6.76 4.936-5.115 0-6.76-2.234-6.76-4.936V26.244h2.74v11.3c0 1.802.998 2.825 4.02 2.825 3.028 0 4.024-1.024 4.024-2.825v-11.3h2.735zM10.166 39.788L15.19 26.4h3.25l1.228 16.142h-2.67L16.09 30.25l-4.546 12.292H8.82L4.242 30.25l-.907 12.292H.666L1.895 26.4h3.25l5.02 13.388zm95.038 0l5.02-13.388h3.253l1.23 16.142h-2.672l-.91-12.292-4.543 12.292h-2.723L99.284 30.25l-.908 12.292h-2.672l1.23-16.142h3.25l5.02 13.388zm40.232 2.64h-2.752V26.202h11.295l-.29 2.31h-8.253v4.96h6.084v2.31h-6.083v6.646zM71.62 28.543h-8.096v4.536h5.935v2.29h-5.936v4.718h8.4v2.302H60.788V26.244h11.106l-.272 2.3zm58.903-.313c-3.01 0-4.14.998-4.14 2.937v6.3c0 1.934 1.13 2.935 4.14 2.935 2.977 0 4.143-1 4.143-2.936v-6.3c0-1.938-1.166-2.936-4.143-2.936zm-27.52-19.26v7.654c-1.885.56-4.517.813-6.14.813-4.807 0-6.394-1.692-6.394-4.888V5.44c0-3.475 1.847-4.915 6.748-4.915 1.758 0 3.673.155 5.298.5l-.26 2.255a35.582 35.582 0 0 0-5.232-.407c-2.92 0-3.8.594-3.8 2.85v6.547c0 2 .687 2.848 3.673 2.848 1.298 0 2.466-.126 3.474-.312v-3.314h-2.284V8.97h4.916zm-95.49 6.147c1.297 0 3.31-.157 4.77-.406l.23 2.225c-1.788.375-3.542.5-5.035.5-4.807 0-6.56-1.63-6.56-4.948V5.472C.917 2.154 2.67.525 7.477.525c1.493 0 3.247.125 5.035.5l-.23 2.223a32.783 32.783 0 0 0-4.77-.405c-2.76 0-3.834.626-3.834 2.817v6.64c0 2.192 1.072 2.817 3.832 2.817zm24.63 2.006h-2.76l-1.428-3.634H20.39l-1.396 3.633h-2.76L22.5.836h3.378l6.266 16.287zm6.348 0h-2.76V.835h7.567c4.09 0 5.293 1.597 5.293 4.167v2.565c0 1.88-.653 3.227-2.565 3.823l3.992 5.732H46.9l-3.767-5.385H38.49v5.385zm89.345-13.97h-7.787v4.574h5.818v2.317h-5.818v4.763h8.475v2.315H117.29V.836h11.203l-.658 2.317zM57.51 17.123h-2.632V.835h3.474l7.92 13.06V.836h2.632v16.286h-3.472L57.51 4.062v13.06zM85.3 3.152h-7.79v4.574h5.815v2.317H77.51v4.763h8.473v2.315h-11.23V.836h11.2L85.3 3.153zm25.98 13.97h-2.757V.835h2.758v16.286zM24.19 2.81l-3.052 8.517h6.103L24.19 2.81zm19.268.345H38.49V9.48h4.968c1.918 0 2.37-.625 2.37-2.098v-2.13c0-1.472-.452-2.097-2.37-2.097z"/></svg>
