<?xml version="1.0" encoding="utf-8"?>
<!-- Generator: Adobe Illustrator 21.0.0, SVG Export Plug-In . SVG Version: 6.00 Build 0)  -->
<svg version="1.1" id="Layer_1" xmlns="http://www.w3.org/2000/svg" xmlns:xlink="http://www.w3.org/1999/xlink" x="0px" y="0px"
	 viewBox="0 0 575.1 69.8" enable-background="new 0 0 575.1 69.8" xml:space="preserve">
<g>
	<path d="M6.5,54.6c2.6,6.1,8.7,9.6,15.4,9.6c7.6,0,14.2-5.5,14.2-12.9c0-7.6-6.8-11.6-13.7-15.1
		c-8.5-4.3-18.2-9.1-18.2-20.3C4.2,6.2,13.4,0,23.1,0v5.6c-6.5,0-12.7,3.9-12.7,10.2c0,8,7.9,11.9,14.8,15.4
		c8.5,4.4,17.1,9.5,17.1,20.1s-9.5,18.5-20.4,18.5C11.8,69.8,3,64.1,0,54.6H6.5z"/>
	<path d="M38.3,1.5h17.4v5.6H38.3V1.5z M85.3,1.5v5.6H64.9v61.2h-6.2V1.5H85.3z"/>
	<path d="M119.6,5.7C105.2,6.5,93.3,18.9,93,33.8c-0.3,16.7,10.9,29.7,26.6,30.3v5.6c-19.3-0.6-33.2-16-32.8-36
		c0.4-17.9,15.1-32.8,32.8-33.6V5.7z M122.6,0.1c18,0.8,32.7,16.4,32.7,34.7c0,18.7-14.4,34-32.7,34.9v-5.6
		c14.8-0.9,26.5-13.7,26.5-29.3c0-15.3-11.8-28.2-26.5-29.1V0.1z"/>
	<path d="M167.1,33.1h18.4c8.9,0,18.9-2.8,18.9-13.9c0-7-4.3-12.1-11.7-12.1h-19.4v23h-6.2V1.5h25.6
		c11.3,0,17.9,7.5,17.9,17.7c0,15.6-13.3,19.5-25.1,19.5h-12.2v29.6h-6.2V33.1z M195.4,40.7c2.1-0.4,4.1-1,5.9-1.8l14.6,29.4h-6.8
		L195.4,40.7z"/>
	<path d="M240.3,31.8l-3.5,5.7l-22-36h7.1L240.3,31.8z M238.6,68.3h6.2V41.8l24.7-40.3h-7.1l-23.8,38.8V68.3z"/>
	<path d="M278.2,1.5h23.6c8.7,0,17.1,6.2,17.1,16.5c0,15-16.2,17-25.4,17h-9.1v27.7h19.2c7.9,0,12.5-5.4,12.5-12.9
		c0-7.4-4.3-11.4-9.8-13.3c2.6-0.7,5.1-1.6,7.4-3c5,3,8.6,8.1,8.6,16.3c0,10.7-6.9,18.5-18.7,18.5h-25.4V29.4h15.3
		c7,0,19.2-1.3,19.2-11.4c0-6.8-5.4-10.9-10.9-10.9h-17.4v19.3h-6.2V1.5z"/>
	<path d="M362.4,5.7c-14.4,0.8-26.3,13.2-26.6,28.1c-0.3,16.7,10.9,29.7,26.6,30.3v5.6c-19.3-0.6-33.2-16-32.8-36
		c0.4-17.9,15.1-32.8,32.8-33.6V5.7z M365.4,0.1c18,0.8,32.7,16.4,32.7,34.7c0,18.7-14.4,34-32.7,34.9v-5.6
		c14.8-0.9,26.5-13.7,26.5-29.3c0-15.3-11.8-28.2-26.5-29.1V0.1z"/>
	<path d="M400,68.3l8.7-23h39.9l8.7,23h-6.6l-6.5-17.4H413l-6.4,17.4H400z M416.2,42.3h-6.4l16-42.3h5.6l16,42.3H441
		L428.7,9.1h-0.2L416.2,42.3z"/>
	<path d="M466.5,33.1h18.4c8.9,0,18.9-2.8,18.9-13.9c0-7-4.3-12.1-11.7-12.1h-19.4v23h-6.2V1.5h25.6
		C503.4,1.5,510,9,510,19.2c0,15.6-13.3,19.5-25.1,19.5h-12.2v29.6h-6.2V33.1z M494.8,40.7c2.1-0.4,4.1-1,5.9-1.8l14.6,29.4h-6.8
		L494.8,40.7z"/>
	<path d="M524.9,10.1h6.2v52.6h11.8c15.2,0,26-11,26-27.9S557.7,7.1,543.1,7.1h-18.2V1.5h18.2c18.1,0,32,13,32,33.3
		s-13.4,33.5-32.2,33.5h-18V10.1z"/>
</g>
</svg>
