<?xml version="1.0" encoding="utf-8"?>
<!-- Generator: Adobe Illustrator 20.0.0, SVG Export Plug-In . SVG Version: 6.00 Build 0)  -->
<svg version="1.1" id="Layer_1" xmlns="http://www.w3.org/2000/svg" xmlns:xlink="http://www.w3.org/1999/xlink" x="0px" y="0px"
	 viewBox="0 0 16 16" style="enable-background:new 0 0 16 16;" xml:space="preserve">
<path d="M8,1.4c2.1,0,2.4,0,3.2,0c0.5,0,1,0.1,1.5,0.3c0.3,0.1,0.7,0.3,0.9,0.6c0.3,0.3,0.5,0.6,0.6,0.9c0.2,0.5,0.3,1,0.3,1.5
	c0,0.8,0,1.1,0,3.2s0,2.4,0,3.2c0,0.5-0.1,1-0.3,1.5c-0.3,0.7-0.8,1.2-1.5,1.5c-0.5,0.2-1,0.3-1.5,0.3c-0.8,0-1.1,0-3.2,0
	s-2.4,0-3.2,0c-0.5,0-1-0.1-1.5-0.3c-0.3-0.1-0.7-0.3-0.9-0.6c-0.3-0.3-0.5-0.6-0.6-0.9c-0.2-0.5-0.3-1-0.3-1.5c0-0.8,0-1.1,0-3.2
	s0-2.4,0-3.2c0-0.5,0.1-1,0.3-1.5C1.8,2.9,2,2.6,2.3,2.4c0.3-0.3,0.6-0.5,0.9-0.6c0.5-0.2,1-0.3,1.5-0.3C5.6,1.4,5.8,1.4,8,1.4 M8,0
	C5.8,0,5.5,0,4.7,0C4,0.1,3.3,0.2,2.7,0.4c-0.5,0.2-1,0.5-1.4,0.9C0.9,1.7,0.6,2.2,0.4,2.8C0.1,3.4,0,4,0,4.7c0,0.9,0,1.1,0,3.3
	s0,2.4,0,3.3c0,0.7,0.1,1.3,0.4,1.9c0.2,0.5,0.5,1,0.9,1.4c0.4,0.4,0.9,0.7,1.4,0.9C3.3,15.8,4,15.9,4.7,16c0.8,0,1.1,0,3.3,0
	s2.4,0,3.3,0c0.7,0,1.3-0.1,1.9-0.4c1.1-0.4,1.9-1.3,2.3-2.3c0.2-0.6,0.4-1.3,0.4-1.9c0-0.8,0-1.1,0-3.3s0-2.4,0-3.3
	c0-0.7-0.1-1.3-0.4-1.9c-0.2-0.5-0.5-1-0.9-1.4c-0.4-0.4-0.9-0.7-1.4-0.9c-0.6-0.2-1.3-0.4-1.9-0.4C10.4,0,10.1,0,8,0L8,0L8,0z"/>
<path d="M8,3.9C5.7,3.9,3.8,5.7,3.8,8s1.9,4.1,4.1,4.1s4.1-1.9,4.1-4.1v0C12.1,5.7,10.2,3.9,8,3.9L8,3.9z M8,10.7
	c-1.5,0-2.7-1.2-2.7-2.7S6.5,5.3,8,5.3s2.7,1.2,2.7,2.7v0C10.6,9.5,9.4,10.7,8,10.7z"/>
<circle cx="12.2" cy="3.7" r="1"/>
</svg>
