<?xml version="1.0" encoding="utf-8"?>
<!-- Generator: Adobe Illustrator 20.0.0, SVG Export Plug-In . SVG Version: 6.00 Build 0)  -->
<svg version="1.1" id="Layer_1" xmlns="http://www.w3.org/2000/svg" xmlns:xlink="http://www.w3.org/1999/xlink" x="0px" y="0px"
	 viewBox="0 0 16 16" style="enable-background:new 0 0 16 16;" xml:space="preserve">
<path d="M15.5,13.8l-3.6-3.6c0.6-0.9,0.9-2,0.9-3.2c0-3.4-2.8-6.2-6.2-6.2C3.3,0.9,0.5,3.6,0.5,7c0,3.4,2.8,6.2,6.2,6.2
	c1.5,0,2.9-0.5,3.9-1.4l3.5,3.5c0.2,0.2,0.5,0.3,0.7,0.3s0.5-0.1,0.7-0.3C15.9,14.8,15.9,14.2,15.5,13.8z M6.7,11.2
	c-2.3,0-4.2-1.9-4.2-4.2c0-2.3,1.9-4.2,4.2-4.2c2.3,0,4.2,1.9,4.2,4.2C10.8,9.3,9,11.2,6.7,11.2z"/>
</svg>
