<?xml version="1.0" encoding="utf-8"?>
<!-- Generator: Adobe Illustrator 20.0.0, SVG Export Plug-In . SVG Version: 6.00 Build 0)  -->
<svg version="1.1" id="Layer_1" xmlns="http://www.w3.org/2000/svg" xmlns:xlink="http://www.w3.org/1999/xlink" x="0px" y="0px"
	 viewBox="0 0 16 16" style="enable-background:new 0 0 16 16;" xml:space="preserve">
<path d="M0.2,0.1v15.8H16V0.1H0.2L0.2,0.1L0.2,0.1z M14.6,14.5H1.7V4.4h12.9V14.5z M14.6,3H1.7V1.5h12.9V3z"/>
<rect x="5.7" y="5.7" width="1.5" height="1.5"/>
<rect x="8.9" y="5.7" width="1.5" height="1.5"/>
<rect x="12.1" y="5.7" width="1.5" height="1.5"/>
<rect x="5.7" y="8.8" width="1.5" height="1.5"/>
<rect x="2.6" y="8.8" width="1.5" height="1.5"/>
<rect x="8.9" y="8.8" width="1.5" height="1.5"/>
<rect x="5.7" y="12" width="1.5" height="1.5"/>
<rect x="2.6" y="12" width="1.5" height="1.5"/>
<rect x="8.9" y="12" width="1.5" height="1.5"/>
<rect x="12.1" y="8.8" width="1.5" height="1.5"/>
</svg>
