<?xml version="1.0" encoding="utf-8"?>
<!-- Generator: Adobe Illustrator 20.0.0, SVG Export Plug-In . SVG Version: 6.00 Build 0)  -->
<svg version="1.1" id="Layer_1" xmlns="http://www.w3.org/2000/svg" xmlns:xlink="http://www.w3.org/1999/xlink" x="0px" y="0px"
	 viewBox="0 0 16 16" style="enable-background:new 0 0 16 16;" xml:space="preserve">
<path d="M16.1,4.3C16,5.9,14.9,8,12.8,10.7c-2.2,2.8-4,4.3-5.5,4.3c-0.9,0-1.7-0.9-2.4-2.6C4.4,10.8,4,9.2,3.6,7.7
	C3.1,5.9,2.6,5.1,2,5.1c-0.1,0-0.5,0.3-1.3,0.8L0,4.8c0.8-0.7,1.6-1.4,2.3-2.1c1.1-0.9,1.9-1.4,2.4-1.4C6,1.2,6.7,2,7,3.9
	c0.3,2,0.5,3.2,0.6,3.7C8,9.2,8.4,10,8.9,10c0.3,0,0.8-0.5,1.5-1.6c0.7-1.1,1-1.9,1.1-2.4c0.1-0.9-0.3-1.4-1.1-1.4
	c-0.4,0-0.8,0.1-1.2,0.3C10,2.3,11.5,1,13.7,1.1C15.4,1.2,16.2,2.2,16.1,4.3L16.1,4.3L16.1,4.3L16.1,4.3z"/>
</svg>
